<svg id="Layer_1" data-name="Layer 1" xmlns="http://www.w3.org/2000/svg" viewBox="0 0 205.2 56.69"><defs><style>.cls-1{fill:#fff;}</style></defs><title>FAO_logo_White_3lines_en</title><path class="cls-1" d="M40.92,65A28.35,28.35,0,1,1,69.27,36.68,28.38,28.38,0,0,1,40.92,65ZM40.81,25.5s2.31,2.43,2.31,4.37a2.39,2.39,0,0,1-2.2,2.61h-.21a2.39,2.39,0,0,1-2.2-2.61C38.51,27.93,40.77,25.5,40.81,25.5ZM19.47,38.26h2.58V33.48H26.4v-2H22.05V28.83h4.49v-2H19.47ZM43.16,25.85h2.72L42.71,14.42H39.23L35.94,25.85h2.53l.73-2.56h3.3ZM42,21.36H39.65l1.1-5h.19ZM54,32.55c0,3.35,1.55,5.91,4.84,5.91s4.87-2.56,4.87-5.91-1.57-5.91-4.87-5.91S54,29.19,54,32.55Zm2.75,0c0-2.2.54-4,2.09-4s2.12,1.78,2.12,4-.56,4-2.12,4S56.75,34.74,56.75,32.55Zm-17,29.32a38.73,38.73,0,0,0,.3-5v-.35c0-2.93-.1-3.92-2.06-4.57-3-1-4.25-4.36-3.59-8.56L24.27,17.77a25.2,25.2,0,0,0,15.44,44.1Zm1.2-16.37c-4-.94-5.51-4.6-5.51-7.85L26.57,16c-.58.4-1.14.83-1.68,1.27L35.57,42.57c1.54,3.72,4.35,2.49,5,5.56a6.79,6.79,0,0,1,.17,1.07h.3a6.36,6.36,0,0,1,.18-1.07c.68-3.07,3.48-1.84,5-5.56L57,17.23c-.54-.44-1.1-.87-1.68-1.27L46.44,37.65c0,3.25-1.5,6.91-5.51,7.85Zm0-6.55a5.54,5.54,0,0,1-4.1-4.25,9.46,9.46,0,0,1,0-2.7L29,14.47c-.62.34-1.23.7-1.83,1.09,2.32,5.2,9.4,21.1,9.4,21.12,1.12,2.36,3.09,2.4,3.77,3.81a4.6,4.6,0,0,1,.45,1.64h.26a4.6,4.6,0,0,1,.45-1.64c.68-1.41,2.64-1.45,3.76-3.81l9.4-21.12c-.58-.39-1.2-.75-1.82-1.09L45.1,32A9.24,9.24,0,0,1,45,34.7,5.52,5.52,0,0,1,40.94,39ZM41,36l.12-.95c.49-2.22,2.1-1.94,3.22-4.12l0,0c0-.08,5.51-11.83,7.8-16.74a25.2,25.2,0,0,0-22.5,0l7.81,16.74,0,0c1.11,2.18,2.72,1.9,3.21,4.12l.11.95Zm25.12.71a25.14,25.14,0,0,0-8.56-18.91L47.47,43.43c.67,4.2-.57,7.56-3.58,8.56-2,.65-2.07,1.64-2.07,4.57v.35a40.67,40.67,0,0,0,.3,5A25.25,25.25,0,0,0,66.13,36.68ZM23.67,44.13s.38.79.68,1.35.71,1.24.71,1.24l-.66.39s-.51-.84-1-1.81l-1.06.54.9,1.72-.68.39-.9-1.75-1.86,1-.41-.82,4.21-2.19Zm2.66,4.31.59.71-3.68,3.08-.6-.71,3.65-3.05Zm3.42,3.23.72.52-.94,5.08-.84-.48s.21-1,.24-1.14-.53-.32-1-.65-.95-.73-1-.76l-1,.6-.71-.61L29.7,51.7Zm-2.13,2.16c.08.07.4.32.72.55s.66.45.75.49c.05-.21.39-1.88.45-2.19Zm5.16-.29a16.18,16.18,0,0,0,1.88.76,17.16,17.16,0,0,0,2,.61l-.22.73a15.65,15.65,0,0,1-1.58-.41c0,.16-1.32,3.78-1.32,3.78l-.87-.3S34,55.09,34,54.93a13.6,13.6,0,0,1-1.54-.68Zm15.16,1a1.32,1.32,0,0,1,.67.87,1.57,1.57,0,0,1,.09.51c0,.67-.47,1.2-1.32,1.46l-.56.17c.06.15.56,1.78.56,1.78l-.84.22-1.43-4.63,1.28-.39A2,2,0,0,1,47.94,54.51Zm-1.78.87c0,.14.39,1.27.44,1.41l.56-.18a1,1,0,0,0,.57-.43.73.73,0,0,0,.07-.29,1.18,1.18,0,0,0,0-.25.64.64,0,0,0-.31-.37,1.17,1.17,0,0,0-.82,0Zm4.64-2.89,4.17,3-.74.52-.92-.7c-.05,0-.48.33-.94.61s-.91.5-1,.52.18,1.13.18,1.13L50.8,58l-.7-5.1Zm.48,3.23a8.42,8.42,0,0,0,.77-.43,4.6,4.6,0,0,0,.63-.41l-1.74-1.32C51,53.9,51.25,55.51,51.28,55.72Zm4.28-7.43,3.63,3.24-.65.76-3.92-1.13c.38.37,2.49,2.59,2.49,2.59l-.64.58-3.42-3.48.81-.71s3.28,1,3.8,1.11c-.39-.36-2.65-2.31-2.65-2.31Zm1.66-2.42,4.2,2.44-.43.74L56.77,46.6Zm1.82-4,.72.37-.07.09a2,2,0,0,0-.45.75.83.83,0,0,0,0,.64.43.43,0,0,0,.29.23c.32.11.59-.17.91-.49a1.72,1.72,0,0,1,1.88-.71c.9.31,1.21,1.11.84,2.21a3.82,3.82,0,0,1-.51.88l0,.06-.74-.35.07-.09a2.77,2.77,0,0,0,.52-.83.77.77,0,0,0-.38-1c-.4-.14-.7.17-1.05.53s-.92,1-1.72.68a1.28,1.28,0,0,1-.77-.64,1.71,1.71,0,0,1,0-1.32,3.09,3.09,0,0,1,.5-.93Z" transform="translate(-12.57 -8.33)"/><path class="cls-1" d="M79.76,14.29h5.65v1.63h-3.6v3h3.44v1.63H81.81v4.86h-2Z" transform="translate(-12.57 -8.33)"/><path class="cls-1" d="M89.88,17.09c1.68,0,3.62.88,3.62,4.24s-1.94,4.25-3.62,4.25-3.63-.8-3.63-4.25S88.2,17.09,89.88,17.09Zm0,7.09c1.28,0,1.57-1.48,1.57-2.85s-.29-2.83-1.57-2.83S88.3,20,88.3,21.33,88.6,24.18,89.88,24.18Z" transform="translate(-12.57 -8.33)"/><path class="cls-1" d="M98.47,17.09c1.68,0,3.61.88,3.61,4.24s-1.93,4.25-3.61,4.25-3.63-.8-3.63-4.25S96.79,17.09,98.47,17.09Zm0,7.09c1.28,0,1.56-1.48,1.56-2.85s-.28-2.83-1.56-2.83S96.88,20,96.88,21.33,97.19,24.18,98.47,24.18Z" transform="translate(-12.57 -8.33)"/><path class="cls-1" d="M110.41,13.46V24.05a10.26,10.26,0,0,0,.06,1.4h-1.85a11,11,0,0,1-.07-1.27h0a2.21,2.21,0,0,1-2.19,1.4c-2,0-2.89-1.95-2.89-4.23,0-2.69,1.07-4.26,2.85-4.26a2.2,2.2,0,0,1,2.12,1.31h0V13.46Zm-3.55,10.67c1.17,0,1.56-1.27,1.56-2.82s-.44-2.76-1.53-2.76-1.49,1.07-1.49,2.72C105.4,23.17,105.71,24.13,106.86,24.13Z" transform="translate(-12.57 -8.33)"/><path class="cls-1" d="M116.78,17.7a5.71,5.71,0,0,1,2.61-.61c2.56,0,3.15,1.25,3.15,3.31V24a9.85,9.85,0,0,0,.11,1.45h-1.79a4.26,4.26,0,0,1-.11-1.11h0a2.66,2.66,0,0,1-2.31,1.24A2.36,2.36,0,0,1,116,23.17c0-2.24,1.82-2.8,4.33-2.8h.41v-.3a1.42,1.42,0,0,0-1.54-1.57,3.78,3.78,0,0,0-2.25.8Zm3.91,3.73h-.18c-1.7,0-2.7.35-2.7,1.55a1.19,1.19,0,0,0,1.26,1.26c1.18,0,1.62-.88,1.62-2.35Z" transform="translate(-12.57 -8.33)"/><path class="cls-1" d="M124.38,18.58a10.77,10.77,0,0,0-.07-1.36h1.86c0,.42.06.85.06,1.26h0a2.42,2.42,0,0,1,2.19-1.39c1.87,0,2.43,1.39,2.43,3.06v5.3h-2V20.51c0-1.26-.32-1.79-1.14-1.79-1,0-1.4.88-1.4,1.94v4.79h-2Z" transform="translate(-12.57 -8.33)"/><path class="cls-1" d="M139.43,13.46V24.05a9.94,9.94,0,0,0,.07,1.4h-1.86a11.54,11.54,0,0,1-.06-1.27h-.05a2.22,2.22,0,0,1-2.19,1.4c-2.05,0-2.89-1.95-2.89-4.23,0-2.69,1.07-4.26,2.84-4.26a2.21,2.21,0,0,1,2.13,1.31h0V13.46Zm-3.54,10.67c1.16,0,1.56-1.27,1.56-2.82s-.45-2.76-1.53-2.76-1.49,1.07-1.49,2.72C134.43,23.17,134.73,24.13,135.89,24.13Z" transform="translate(-12.57 -8.33)"/><path class="cls-1" d="M150.41,22.77h-3.83l-.8,2.68h-2.05l3.74-11.16h2.24l3.6,11.16H151.2ZM150,21.2,148.58,16h0L147,21.2Z" transform="translate(-12.57 -8.33)"/><path class="cls-1" d="M154.55,26.73a5.19,5.19,0,0,0,2.43.71c1.87,0,2.18-1.3,2.18-2.59v-.79h0A2.26,2.26,0,0,1,157,25.45c-1.15,0-2.88-.76-2.88-4.09,0-2.27.82-4.27,3-4.27a2.34,2.34,0,0,1,2.17,1.41h.06c0-.43.05-.85.07-1.28h1.79c0,.43-.06.86-.06,1.3v6.07c0,2.58-.79,4.41-3.81,4.41a8.21,8.21,0,0,1-2.83-.51ZM157.41,24c1.25,0,1.75-.9,1.75-2.77,0-1.72-.66-2.65-1.6-2.63s-1.44,1-1.44,2.65C156.12,23.18,156.74,24,157.41,24Z" transform="translate(-12.57 -8.33)"/><path class="cls-1" d="M162.94,18.58a11,11,0,0,0-.06-1.36h1.79c0,.5.06,1,.06,1.5h0a2.29,2.29,0,0,1,2.09-1.63,1.86,1.86,0,0,1,.34.05V19a2.05,2.05,0,0,0-.56-.09c-.82,0-1.71.5-1.71,2v4.5h-2Z" transform="translate(-12.57 -8.33)"/><path class="cls-1" d="M168.67,13.72h2v1.95h-2Zm0,3.5h2v8.23h-2Z" transform="translate(-12.57 -8.33)"/><path class="cls-1" d="M178.26,25.25a5.82,5.82,0,0,1-1.95.33c-2.72,0-3.87-1.9-3.87-4.23s1.21-4.26,4-4.26a5.3,5.3,0,0,1,1.73.34L178,19a3.08,3.08,0,0,0-1.39-.4c-1.5,0-2.16,1-2.16,2.76,0,1.54.74,2.72,2.26,2.72a3.17,3.17,0,0,0,1.41-.4Z" transform="translate(-12.57 -8.33)"/><path class="cls-1" d="M186,24.1a13,13,0,0,0,.06,1.35h-1.85c0-.41-.07-.84-.07-1.26h0a2.38,2.38,0,0,1-2.19,1.39c-1.87,0-2.43-1.39-2.43-3V17.22h2v4.94c0,1.26.36,1.79,1.19,1.79,1.05,0,1.36-1,1.36-2V17.22h2Z" transform="translate(-12.57 -8.33)"/><path class="cls-1" d="M188,13.46h2v12h-2Z" transform="translate(-12.57 -8.33)"/><path class="cls-1" d="M192.66,15.52l2-.6v2.3h1.65v1.45h-1.65v4.27c0,.88.32,1.14.9,1.14a1.57,1.57,0,0,0,.75-.18v1.41a3.16,3.16,0,0,1-1.33.27c-1.47,0-2.3-.67-2.3-2.4V18.67h-1.31V17.22h1.31Z" transform="translate(-12.57 -8.33)"/><path class="cls-1" d="M204.06,24.1a10.69,10.69,0,0,0,.06,1.35h-1.86c0-.41-.06-.84-.06-1.26h0A2.39,2.39,0,0,1,200,25.58c-1.87,0-2.43-1.39-2.43-3V17.22h2v4.94c0,1.26.35,1.79,1.18,1.79,1.06,0,1.36-1,1.36-2V17.22h2Z" transform="translate(-12.57 -8.33)"/><path class="cls-1" d="M205.91,18.58a10.77,10.77,0,0,0-.07-1.36h1.79c0,.5.07,1,.07,1.5h0a2.29,2.29,0,0,1,2.09-1.63,1.74,1.74,0,0,1,.34.05V19a2,2,0,0,0-.56-.09c-.81,0-1.71.5-1.71,2v4.5h-2Z" transform="translate(-12.57 -8.33)"/><path class="cls-1" d="M217.35,25.05a6,6,0,0,1-2.46.53c-2.65,0-3.8-1.9-3.8-4.12,0-2.46,1.29-4.37,3.39-4.37,1.77,0,3.29,1,3.29,4.4v.38H213c0,1.41.55,2.26,2.09,2.26a3.3,3.3,0,0,0,2.16-.64Zm-1.5-4.42c0-1.46-.48-2.19-1.37-2.19S213,19.54,213,20.63Z" transform="translate(-12.57 -8.33)"/><path class="cls-1" d="M83.76,32.2c2.32,0,4.45,1.73,4.45,5.74s-2.13,5.74-4.45,5.74S79.32,42,79.32,37.94,81.44,32.2,83.76,32.2Zm0,9.92c1.3,0,2.34-1.11,2.34-4.18s-1-4.17-2.34-4.17-2.33,1.1-2.33,4.17S82.47,42.12,83.76,42.12Z" transform="translate(-12.57 -8.33)"/><path class="cls-1" d="M89.9,36.65a10.66,10.66,0,0,0-.07-1.36h1.79c0,.49.07,1,.07,1.5h0a2.29,2.29,0,0,1,2.1-1.63,1.75,1.75,0,0,1,.33.05v1.85a1.94,1.94,0,0,0-.56-.08c-.81,0-1.71.5-1.71,2v4.51h-2Z" transform="translate(-12.57 -8.33)"/><path class="cls-1" d="M95.55,44.8a5.24,5.24,0,0,0,2.44.71c1.87,0,2.17-1.3,2.17-2.59v-.79h0A2.26,2.26,0,0,1,98,43.52c-1.15,0-2.87-.76-2.87-4.09,0-2.27.81-4.27,3-4.27a2.34,2.34,0,0,1,2.17,1.41h.07c0-.44,0-.85.06-1.28h1.79c0,.43-.06.86-.06,1.29v6.08c0,2.57-.78,4.41-3.81,4.41a8.21,8.21,0,0,1-2.83-.51Zm2.87-2.73c1.25,0,1.74-.9,1.74-2.77s-.66-2.65-1.6-2.64-1.44,1-1.44,2.66C97.12,41.25,97.75,42.07,98.42,42.07Z" transform="translate(-12.57 -8.33)"/><path class="cls-1" d="M104.28,35.77a5.71,5.71,0,0,1,2.61-.61c2.56,0,3.15,1.25,3.15,3.31v3.6a9.85,9.85,0,0,0,.11,1.45h-1.79a3.94,3.94,0,0,1-.11-1.12h0a2.64,2.64,0,0,1-2.31,1.25,2.36,2.36,0,0,1-2.46-2.41c0-2.24,1.82-2.8,4.33-2.8h.4v-.31a1.41,1.41,0,0,0-1.53-1.56,3.84,3.84,0,0,0-2.26.8Zm3.9,3.72H108c-1.7,0-2.7.36-2.7,1.55a1.19,1.19,0,0,0,1.26,1.27c1.18,0,1.61-.88,1.61-2.35Z" transform="translate(-12.57 -8.33)"/><path class="cls-1" d="M111.87,36.65a10.86,10.86,0,0,0-.06-1.36h1.86c0,.41.06.84.06,1.26h0A2.4,2.4,0,0,1,116,35.16c1.87,0,2.43,1.39,2.43,3.05v5.31h-2V38.58c0-1.26-.32-1.79-1.14-1.79-1,0-1.4.88-1.4,1.94v4.79h-2Z" transform="translate(-12.57 -8.33)"/><path class="cls-1" d="M120.33,31.79h2v2h-2Zm0,3.5h2v8.23h-2Z" transform="translate(-12.57 -8.33)"/><path class="cls-1" d="M123.88,41.81l3.52-5H124v-1.5h5.39V37l-3.45,5h3.56v1.5h-5.61Z" transform="translate(-12.57 -8.33)"/><path class="cls-1" d="M131.23,35.77a5.68,5.68,0,0,1,2.61-.61c2.56,0,3.15,1.25,3.15,3.31v3.6a9.85,9.85,0,0,0,.11,1.45h-1.79a3.94,3.94,0,0,1-.11-1.12h0a2.61,2.61,0,0,1-2.3,1.25,2.36,2.36,0,0,1-2.46-2.41c0-2.24,1.82-2.8,4.33-2.8h.4v-.31a1.41,1.41,0,0,0-1.53-1.56,3.84,3.84,0,0,0-2.26.8Zm3.9,3.72H135c-1.7,0-2.71.36-2.71,1.55a1.2,1.2,0,0,0,1.27,1.27c1.18,0,1.61-.88,1.61-2.35Z" transform="translate(-12.57 -8.33)"/><path class="cls-1" d="M139.56,33.59l2-.61v2.31h1.65v1.45h-1.65V41c0,.88.32,1.14.9,1.14a1.57,1.57,0,0,0,.75-.18v1.41a3.16,3.16,0,0,1-1.33.27c-1.47,0-2.3-.67-2.3-2.4V36.74h-1.31V35.29h1.31Z" transform="translate(-12.57 -8.33)"/><path class="cls-1" d="M144.61,31.79h2v2h-2Zm0,3.5h2v8.23h-2Z" transform="translate(-12.57 -8.33)"/><path class="cls-1" d="M152,35.16c1.68,0,3.62.88,3.62,4.24s-1.94,4.25-3.62,4.25-3.63-.8-3.63-4.25S150.33,35.16,152,35.16Zm0,7.08c1.28,0,1.57-1.47,1.57-2.84s-.29-2.83-1.57-2.83-1.58,1.45-1.58,2.83S150.73,42.24,152,42.24Z" transform="translate(-12.57 -8.33)"/><path class="cls-1" d="M157.19,36.65a10.66,10.66,0,0,0-.07-1.36H159c0,.41.06.84.06,1.26h0a2.38,2.38,0,0,1,2.19-1.39c1.87,0,2.43,1.39,2.43,3.05v5.31h-2V38.58c0-1.26-.32-1.79-1.13-1.79-1,0-1.41.88-1.41,1.94v4.79h-2Z" transform="translate(-12.57 -8.33)"/><path class="cls-1" d="M173.05,35.16c1.67,0,3.61.88,3.61,4.24s-1.94,4.25-3.61,4.25-3.63-.8-3.63-4.25S171.37,35.16,173.05,35.16Zm0,7.08c1.28,0,1.56-1.47,1.56-2.84s-.28-2.83-1.56-2.83-1.59,1.45-1.59,2.83S171.77,42.24,173.05,42.24Z" transform="translate(-12.57 -8.33)"/><path class="cls-1" d="M178.86,36.74h-1.37V35.29h1.37V33.61a2.09,2.09,0,0,1,2.37-2.27,6.88,6.88,0,0,1,1.42.19L182.57,33a3.1,3.1,0,0,0-.78-.13.92.92,0,0,0-.94,1v1.43h1.5v1.45h-1.5v6.78h-2Z" transform="translate(-12.57 -8.33)"/><path class="cls-1" d="M188.44,33.59l2-.61v2.31h1.65v1.45h-1.65V41c0,.88.32,1.14.89,1.14a1.58,1.58,0,0,0,.76-.18v1.41a3.16,3.16,0,0,1-1.33.27c-1.47,0-2.3-.67-2.3-2.4V36.74h-1.31V35.29h1.31Z" transform="translate(-12.57 -8.33)"/><path class="cls-1" d="M193.33,31.53h2v4.81h.05a2.22,2.22,0,0,1,2-1.18c1.87,0,2.44,1.39,2.44,3.05v5.31h-2V38.58c0-1.26-.32-1.79-1.13-1.79-1,0-1.41.88-1.41,1.94v4.79h-2Z" transform="translate(-12.57 -8.33)"/><path class="cls-1" d="M207.67,43.12a6.07,6.07,0,0,1-2.46.53c-2.66,0-3.81-1.9-3.81-4.13,0-2.46,1.29-4.36,3.39-4.36,1.77,0,3.29,1,3.29,4.4v.38h-4.76c0,1.41.56,2.26,2.09,2.26a3.28,3.28,0,0,0,2.16-.64Zm-1.51-4.43c0-1.45-.48-2.19-1.37-2.19s-1.47,1.11-1.47,2.19Z" transform="translate(-12.57 -8.33)"/><path class="cls-1" d="M81.71,50.43v7.23c0,1.85.56,2.46,1.76,2.46s1.75-.61,1.75-2.46V50.43h2v7.23c0,2.94-1.69,4.09-3.79,4.09s-3.8-1.15-3.8-4.09V50.43Z" transform="translate(-12.57 -8.33)"/><path class="cls-1" d="M89.24,54.71a10.69,10.69,0,0,0-.06-1.35H91c0,.41.07.84.07,1.26h0a2.4,2.4,0,0,1,2.19-1.39c1.87,0,2.43,1.39,2.43,3.05v5.31h-2V56.65c0-1.26-.32-1.79-1.14-1.79-1,0-1.4.88-1.4,1.93v4.8h-2Z" transform="translate(-12.57 -8.33)"/><path class="cls-1" d="M97.7,49.85h2V51.8h-2Zm0,3.51h2v8.23h-2Z" transform="translate(-12.57 -8.33)"/><path class="cls-1" d="M102.43,51.66l2-.61v2.31h1.65v1.45h-1.65v4.27c0,.88.32,1.14.9,1.14a1.54,1.54,0,0,0,.75-.18v1.41a3.16,3.16,0,0,1-1.33.27c-1.47,0-2.3-.67-2.3-2.4V54.81h-1.31V53.36h1.31Z" transform="translate(-12.57 -8.33)"/><path class="cls-1" d="M113.36,61.19a6,6,0,0,1-2.46.53c-2.65,0-3.8-1.9-3.8-4.13,0-2.46,1.29-4.36,3.39-4.36,1.77,0,3.29,1,3.29,4.39V58H109c0,1.41.55,2.25,2.09,2.25a3.25,3.25,0,0,0,2.16-.64Zm-1.5-4.43c0-1.45-.48-2.19-1.37-2.19S109,55.67,109,56.76Z" transform="translate(-12.57 -8.33)"/><path class="cls-1" d="M122.07,49.6V60.18a10.1,10.1,0,0,0,.07,1.41h-1.86a11.76,11.76,0,0,1-.06-1.28h0A2.21,2.21,0,0,1,118,61.72c-2,0-2.89-1.95-2.89-4.24,0-2.69,1.07-4.25,2.84-4.25a2.21,2.21,0,0,1,2.13,1.31h0V49.6Zm-3.54,10.66c1.16,0,1.56-1.26,1.56-2.81s-.45-2.77-1.53-2.77-1.49,1.07-1.49,2.72C117.07,59.3,117.37,60.26,118.53,60.26Z" transform="translate(-12.57 -8.33)"/><path class="cls-1" d="M128.32,50.43h2.43l3.71,8.76h0V50.43h1.85V61.59H133.9l-3.69-8.7h0v8.7h-1.86Z" transform="translate(-12.57 -8.33)"/><path class="cls-1" d="M138.81,53.84a5.66,5.66,0,0,1,2.6-.61c2.56,0,3.15,1.24,3.15,3.31v3.6a9.62,9.62,0,0,0,.12,1.45h-1.79a3.93,3.93,0,0,1-.12-1.12h0a2.65,2.65,0,0,1-2.3,1.25A2.36,2.36,0,0,1,138,59.3c0-2.23,1.82-2.79,4.33-2.79h.4V56.2a1.42,1.42,0,0,0-1.54-1.57,3.78,3.78,0,0,0-2.25.8Zm3.9,3.72h-.18c-1.69,0-2.7.35-2.7,1.55a1.2,1.2,0,0,0,1.26,1.27c1.19,0,1.62-.88,1.62-2.36Z" transform="translate(-12.57 -8.33)"/><path class="cls-1" d="M147.14,51.66l2-.61v2.31h1.64v1.45h-1.64v4.27c0,.88.32,1.14.89,1.14a1.54,1.54,0,0,0,.75-.18v1.41a3.07,3.07,0,0,1-1.32.27c-1.47,0-2.3-.67-2.3-2.4V54.81h-1.32V53.36h1.32Z" transform="translate(-12.57 -8.33)"/><path class="cls-1" d="M152.19,49.85h2V51.8h-2Zm0,3.51h2v8.23h-2Z" transform="translate(-12.57 -8.33)"/><path class="cls-1" d="M159.59,53.23c1.68,0,3.61.88,3.61,4.23s-1.93,4.26-3.61,4.26-3.63-.8-3.63-4.26S157.91,53.23,159.59,53.23Zm0,7.08c1.28,0,1.56-1.47,1.56-2.85s-.28-2.83-1.56-2.83S158,56.09,158,57.46,158.31,60.31,159.59,60.31Z" transform="translate(-12.57 -8.33)"/><path class="cls-1" d="M164.76,54.71a10.69,10.69,0,0,0-.06-1.35h1.86c0,.41.06.84.06,1.26h0a2.4,2.4,0,0,1,2.19-1.39c1.87,0,2.43,1.39,2.43,3.05v5.31h-2V56.65c0-1.26-.32-1.79-1.14-1.79-1,0-1.4.88-1.4,1.93v4.8h-2Z" transform="translate(-12.57 -8.33)"/><path class="cls-1" d="M172.84,59.67a5.21,5.21,0,0,0,2.06.55c.72,0,1.28-.18,1.28-.82,0-.32-.16-.62-.88-1l-.82-.48c-.83-.5-1.74-1-1.74-2.32a2.62,2.62,0,0,1,2.85-2.33,6.8,6.8,0,0,1,2.06.33l-.11,1.54a4.63,4.63,0,0,0-1.75-.37c-.8,0-1.13.3-1.13.8s.35.69.93,1.06l1,.62c1,.65,1.54,1.12,1.54,2.08,0,1.52-1.28,2.43-3.07,2.43a6.68,6.68,0,0,1-2.29-.4Z" transform="translate(-12.57 -8.33)"/></svg>