<?xml version="1.0" encoding="UTF-8" standalone="no"?>
<svg xmlns:dc="http://purl.org/dc/elements/1.1/" xmlns:cc="http://creativecommons.org/ns#" xmlns:rdf="http://www.w3.org/1999/02/22-rdf-syntax-ns#" xmlns:svg="http://www.w3.org/2000/svg" xmlns="http://www.w3.org/2000/svg" xmlns:sodipodi="http://sodipodi.sourceforge.net/DTD/sodipodi-0.dtd" xmlns:inkscape="http://www.inkscape.org/namespaces/inkscape" version="1.1" id="svg2" xml:space="preserve" width="251.33333" height="101.33333" viewBox="0 0 251.33333 101.33333" sodipodi:docname="FAO_logo_Blue_3lines_en.eps"><metadata id="metadata8"><rdf:RDF><cc:Work rdf:about=""><dc:format>image/svg+xml</dc:format><dc:type rdf:resource="http://purl.org/dc/dcmitype/StillImage"/></cc:Work></rdf:RDF></metadata><defs id="defs6"/><sodipodi:namedview pagecolor="#ffffff" bordercolor="#666666" borderopacity="1" objecttolerance="10" gridtolerance="10" guidetolerance="10" inkscape:pageopacity="0" inkscape:pageshadow="2" inkscape:window-width="640" inkscape:window-height="480" id="namedview4"/><g id="g10" inkscape:groupmode="layer" inkscape:label="ink_ext_XXXXXX" transform="matrix(1.3333333,0,0,-1.3333333,0,101.33333)"><g id="g12" transform="scale(0.1)"><path d="m 522.395,354.496 5.402,-2.808 -0.535,-0.633 c -1.766,-2.133 -2.551,-3.239 -3.379,-5.641 -0.41,-1.098 -0.91,-3.191 -0.082,-4.777 0.398,-0.836 1.121,-1.449 2.152,-1.774 2.406,-0.816 4.477,1.278 6.856,3.703 3.328,3.379 7.449,7.555 14.117,5.317 6.765,-2.301 9.066,-8.328 6.265,-16.535 -0.847,-2.504 -2.398,-4.637 -3.828,-6.618 l -0.332,-0.421 -5.59,2.601 0.563,0.653 c 0.664,0.792 3,3.523 3.871,6.23 0.852,2.379 0.77,6.41 -2.855,7.633 -3,1.039 -5.258,-1.285 -7.887,-3.988 -3.192,-3.36 -6.856,-7.149 -12.895,-5.09 -2.652,0.894 -4.636,2.586 -5.758,4.824 -1.363,2.75 -1.41,6.25 -0.14,9.914 0.801,2.465 2.168,5.008 3.738,6.98 z m -13.665,-30.254 31.528,-18.281 -3.207,-5.535 -31.696,18.34 z m -12.441,-18.121 27.223,-24.285 -4.903,-5.742 c 0,0 -25.523,7.453 -29.394,8.492 2.875,-2.75 18.711,-19.445 18.711,-19.445 l -4.781,-4.317 -25.649,26.063 6.024,5.394 c 0,0 24.628,-7.347 28.5,-8.371 -2.875,2.731 -19.872,17.352 -19.872,17.352 z m -32.086,-55.738 c 0.934,0.445 3.356,1.769 5.762,3.215 2.148,1.304 3.867,2.382 4.738,3.074 -1.265,0.957 -11.015,8.367 -13.039,9.933 0.41,-2.542 2.289,-14.636 2.539,-16.222 z m -3.578,24.226 31.215,-22.867 -5.547,-3.906 c 0,0 -6.27,4.766 -6.895,5.23 -0.371,-0.199 -3.582,-2.48 -7.054,-4.535 -3.274,-1.976 -6.813,-3.726 -7.168,-3.929 0.152,-0.817 1.371,-8.473 1.371,-8.473 l -5.961,-2.848 -5.238,38.274 z m -34.832,-21.64 c 0.305,-1.059 2.957,-9.531 3.27,-10.567 1.32,0.387 4.199,1.305 4.199,1.305 0.953,0.281 3.207,1.176 4.281,3.231 0.352,0.675 0.539,1.425 0.539,2.203 0,0.589 -0.121,1.203 -0.309,1.851 -0.41,1.242 -1.164,2.196 -2.3,2.785 -1.942,1.043 -4.551,0.778 -6.192,0.289 0,0 -2.601,-0.812 -3.488,-1.097 z m 13.367,6.535 c 2.363,-1.242 4.078,-3.445 5.012,-6.559 0.414,-1.324 0.641,-2.586 0.641,-3.804 0,-5.032 -3.52,-8.981 -9.875,-10.977 0,0 -3.208,-0.996 -4.161,-1.277 0.375,-1.145 4.161,-13.336 4.161,-13.336 l -6.317,-1.633 -10.699,34.676 9.562,2.972 c 4.782,1.485 8.754,1.465 11.676,-0.062 z m -113.707,7.242 c 0,0 5.84,-2.906 14.121,-5.734 5.653,-1.957 10.449,-3.485 15.153,-4.524 l -1.641,-5.476 c 0,0 -4.488,0.797 -11.793,3.035 -0.418,-1.199 -9.914,-28.34 -9.914,-28.34 l -6.508,2.258 c 0,0 9.465,27.18 9.875,28.363 -6.812,2.543 -11.543,5.067 -11.543,5.067 z m -38.73,-2.156 c 0.644,-0.547 2.984,-2.442 5.406,-4.168 2.461,-1.715 4.926,-3.344 5.648,-3.668 0.352,1.586 2.875,14.109 3.395,16.43 -2.047,-1.219 -12.996,-7.735 -14.449,-8.594 z m 15.965,16.168 5.46,-3.91 -7.078,-38.075 -6.269,3.606 c 0,0 1.57,7.758 1.758,8.512 -0.309,0.242 -3.957,2.425 -7.496,4.925 -3.598,2.567 -7.098,5.457 -7.43,5.684 -0.68,-0.41 -7.613,-4.504 -7.613,-4.504 l -5.364,4.582 33.68,18.973 z m -25.586,24.207 4.386,-5.297 -27.609,-23.086 -4.477,5.293 27.368,22.867 z m -19.954,32.371 c 0,0 2.793,-5.945 5.071,-10.156 2.254,-4.219 5.34,-9.309 5.34,-9.309 l -4.993,-2.91 c 0,0 -3.789,6.309 -7.261,13.598 -0.953,-0.489 -6.938,-3.602 -7.926,-4.09 0.574,-1.063 6.703,-12.867 6.703,-12.867 l -5.055,-2.911 c 0,0 -6.211,12.071 -6.742,13.09 -1.078,-0.531 -13.972,-7.187 -13.972,-7.187 l -3.086,6.129 31.57,16.429 z m 318.45,55.844 c 0,56.453 -24.883,107.168 -64.196,141.879 L 435.641,342.543 c 5.035,-31.449 -4.289,-56.699 -26.911,-64.188 -14.652,-4.863 -15.464,-12.277 -15.464,-34.222 0,-1.184 0,1.648 0,-2.629 0,-15.598 1.183,-28.91 2.257,-37.195 100.086,4.722 180.075,87.625 180.075,188.871 z m -188.414,5.312 0.886,7.168 c 3.668,16.653 15.754,14.574 24.141,30.922 0.039,0.063 0.144,0.25 0.144,0.25 0.247,0.609 41.336,88.766 58.481,125.57 -25.402,12.703 -54.035,19.895 -84.336,19.895 -30.285,0 -58.937,-7.192 -84.355,-19.895 17.14,-36.804 58.21,-124.961 58.543,-125.57 0,0 0.078,-0.187 0.125,-0.25 8.343,-16.348 20.41,-14.269 24.074,-30.922 l 0.89,-7.168 z m -0.805,-22.336 c -12.774,2.852 -28.691,15.539 -30.766,31.867 -0.746,6.207 -1.343,7.938 -0.433,20.274 l -58.086,131.476 c -4.672,-2.523 -9.235,-5.253 -13.699,-8.164 17.367,-39.027 70.46,-158.246 70.5,-158.39 8.406,-17.692 23.148,-18.039 28.234,-28.586 3.066,-6.25 3.34,-11.844 3.379,-12.293 h 1.941 c 0.039,0.449 0.356,6.043 3.375,12.293 5.114,10.547 19.856,10.894 28.239,28.586 0.039,0.144 53.156,119.363 70.503,158.39 -4.41,2.911 -9.007,5.641 -13.707,8.164 L 417.844,428.297 c 0.906,-12.336 0.304,-14.067 -0.5,-20.274 -2.071,-16.328 -17.992,-29.015 -30.699,-31.867 z m 0.039,-49.105 c -30.117,7.027 -41.301,34.469 -41.301,58.84 L 278.84,548.559 c -4.328,-2.993 -8.527,-6.192 -12.59,-9.504 14.578,-34.551 80.004,-189.813 80.094,-190.035 11.57,-27.891 32.64,-18.649 37.734,-41.676 1.219,-5.574 1.305,-8.02 1.305,-8.02 h 2.254 c 0,0 0.043,2.446 1.304,8.02 5.09,23.027 26.102,13.785 37.696,41.676 0.082,0.222 65.511,155.484 80.066,190.035 -4.058,3.312 -8.234,6.511 -12.586,9.504 L 427.859,385.891 c 0,-24.371 -11.199,-51.813 -41.32,-58.84 z m -8.984,-122.742 c 1.136,8.285 2.254,21.597 2.254,37.195 0,4.277 0,1.445 0,2.629 0,21.945 -0.805,29.359 -15.458,34.222 -22.628,7.489 -31.882,32.739 -26.917,64.188 l -75.696,192.516 c -39.371,-34.711 -64.211,-85.426 -64.211,-141.879 0,-101.246 80.004,-184.149 180.028,-188.871 z m 127.8,219.894 c 0,16.449 4.036,29.828 15.668,29.828 11.676,0 15.879,-13.379 15.879,-29.828 0,-16.449 -4.203,-29.844 -15.879,-29.844 -11.632,0 -15.668,13.395 -15.668,29.844 z m -20.66,0 c 0,-25.18 11.676,-44.32 36.328,-44.32 24.719,0 36.52,19.14 36.52,44.32 0,25.188 -11.801,44.32 -36.52,44.32 -24.652,0 -36.328,-19.132 -36.328,-44.32 z m -89.812,83.902 h -17.824 l 8.3,37.278 h 1.364 z m 8.504,-33.671 h 20.457 l -23.774,85.707 h -26.14 l -24.633,-85.707 h 18.937 l 5.446,19.156 h 24.8 z M 225.598,381.352 h 19.398 v 35.832 h 32.582 v 15.004 h -32.582 v 19.914 h 33.656 v 14.961 h -53.054 z m 160.09,95.664 c 0.273,0 17.273,-18.2 17.273,-32.778 0,-15.777 -12.301,-19.547 -16.461,-19.547 -0.211,0 -0.461,0.028 -0.723,0.043 h -0.168 c -0.265,-0.015 -0.543,-0.043 -0.722,-0.043 -4.141,0 -16.457,3.77 -16.457,19.547 0,14.578 16.953,32.778 17.258,32.778 z M 386.5,180.59 c -117.223,0 -212.609,95.363 -212.609,212.59 0,117.226 95.386,212.605 212.609,212.605 117.223,0 212.586,-95.379 212.586,-212.605 0,-117.227 -95.363,-212.59 -212.586,-212.59" style="fill:#5087ce;fill-opacity:1;fill-rule:nonzero;stroke:none" id="path14"/><path d="m 677.82,561.098 h 42.34 v -12.235 h -26.984 v -22.789 h 25.785 v -12.23 H 693.176 V 477.387 H 677.82 v 83.711" style="fill:#5087ce;fill-opacity:1;fill-rule:nonzero;stroke:none" id="path16"/><path d="m 753.711,486.98 c 9.602,0 11.758,11.04 11.758,21.344 0,10.313 -2.156,21.231 -11.758,21.231 -9.59,0 -11.871,-10.918 -11.871,-21.231 0,-10.304 2.281,-21.344 11.871,-21.344 z m 0,53.125 c 12.594,0 27.109,-6.593 27.109,-31.781 0,-25.898 -14.515,-31.898 -27.109,-31.898 -12.594,0 -27.219,6 -27.219,31.898 0,25.188 14.625,31.781 27.219,31.781" style="fill:#5087ce;fill-opacity:1;fill-rule:nonzero;stroke:none" id="path18"/><path d="m 818.086,486.98 c 9.602,0 11.758,11.04 11.758,21.344 0,10.313 -2.156,21.231 -11.758,21.231 -9.59,0 -11.871,-10.918 -11.871,-21.231 0,-10.304 2.281,-21.344 11.871,-21.344 z m 0,53.125 c 12.594,0 27.109,-6.593 27.109,-31.781 0,-25.898 -14.515,-31.898 -27.109,-31.898 -12.594,0 -27.219,6 -27.219,31.898 0,25.188 14.625,31.781 27.219,31.781" style="fill:#5087ce;fill-opacity:1;fill-rule:nonzero;stroke:none" id="path20"/><path d="m 881.023,487.344 c 8.758,0 11.75,9.472 11.75,21.101 0,11.993 -3.359,20.75 -11.511,20.75 -8.278,0 -11.149,-8.039 -11.149,-20.39 0,-14.27 2.282,-21.461 10.91,-21.461 z m 26.622,79.992 v -79.398 c 0,-4.43 0.125,-8.27 0.48,-10.551 h -13.906 c -0.242,1.797 -0.481,5.394 -0.481,9.593 h -0.363 c -2.395,-5.277 -6.832,-10.554 -16.434,-10.554 -15.347,0 -21.699,14.633 -21.699,31.781 0,20.148 8.028,31.898 21.344,31.898 8.879,0 13.797,-5.031 15.953,-9.832 h 0.234 v 37.063 h 14.872" style="fill:#5087ce;fill-opacity:1;fill-rule:nonzero;stroke:none" id="path22"/><path d="m 984.727,507.605 h -1.325 c -12.714,0 -20.265,-2.64 -20.265,-11.628 0,-5.633 3.722,-9.473 9.476,-9.473 8.875,0 12.114,6.598 12.114,17.621 z m -29.266,27.946 c 4.203,1.922 10.074,4.554 19.555,4.554 19.187,0 23.629,-9.351 23.629,-24.824 v -26.98 c 0,-4.438 0.472,-8.516 0.828,-10.914 h -13.434 c -0.711,2.398 -0.836,5.394 -0.836,8.394 h -0.242 c -3.715,-5.035 -8.391,-9.355 -17.266,-9.355 -9.597,0 -18.465,6.597 -18.465,18.109 0,16.789 13.668,20.988 32.493,20.988 h 3.004 v 2.282 c 0,6.113 -3.004,11.75 -11.512,11.75 -7.445,0 -14.031,-3.598 -16.91,-5.996 l -0.844,11.992" style="fill:#5087ce;fill-opacity:1;fill-rule:nonzero;stroke:none" id="path24"/><path d="m 1012.4,528.953 c 0,3.84 -0.12,7.438 -0.48,10.195 h 13.91 c 0.12,-3.117 0.48,-6.355 0.48,-9.476 h 0.24 c 2.16,3.723 6.36,10.433 16.43,10.433 14.03,0 18.23,-10.433 18.23,-22.902 v -39.816 h -14.87 v 37.054 c 0,9.477 -2.4,13.434 -8.52,13.434 -7.79,0 -10.54,-6.598 -10.54,-14.512 v -35.976 h -14.88 v 51.566" style="fill:#5087ce;fill-opacity:1;fill-rule:nonzero;stroke:none" id="path26"/><path d="m 1098.73,487.344 c 8.75,0 11.74,9.472 11.74,21.101 0,11.993 -3.36,20.75 -11.51,20.75 -8.28,0 -11.15,-8.039 -11.15,-20.39 0,-14.27 2.28,-21.461 10.92,-21.461 z m 26.61,79.992 v -79.398 c 0,-4.43 0.13,-8.27 0.48,-10.551 h -13.9 c -0.25,1.797 -0.48,5.394 -0.48,9.593 h -0.37 c -2.39,-5.277 -6.83,-10.554 -16.43,-10.554 -15.35,0 -21.7,14.633 -21.7,31.781 0,20.148 8.03,31.898 21.35,31.898 8.87,0 13.79,-5.031 15.95,-9.832 h 0.23 v 37.063 h 14.87" style="fill:#5087ce;fill-opacity:1;fill-rule:nonzero;stroke:none" id="path28"/><path d="m 1204.46,509.285 -10.56,39.098 h -0.23 l -11.51,-39.098 z m 3.24,-11.746 h -28.78 l -6,-20.152 h -15.35 l 28.06,83.711 h 16.79 l 26.99,-83.711 h -15.83 l -5.88,20.152" style="fill:#5087ce;fill-opacity:1;fill-rule:nonzero;stroke:none" id="path30"/><path d="m 1260.19,488.301 c 9.36,0 13.07,6.719 13.07,20.746 0,12.949 -4.92,19.906 -11.99,19.785 -7.8,-0.117 -10.79,-7.312 -10.79,-19.906 0,-14.508 4.67,-20.625 9.71,-20.625 z m -21.47,-20.508 c 3.48,-1.918 10.44,-5.277 18.23,-5.277 14.03,0 16.31,9.714 16.31,19.425 v 5.879 h -0.23 c -2.4,-4.797 -6.6,-10.433 -16.32,-10.433 -8.63,0 -21.58,5.758 -21.58,30.699 0,17.031 6.12,32.019 22.3,32.019 9,0 13.2,-5.156 16.31,-10.55 h 0.48 c 0,3.238 0.36,6.359 0.49,9.593 h 13.42 c -0.23,-3.234 -0.47,-6.476 -0.47,-9.714 v -45.571 c 0,-19.308 -5.88,-33.101 -28.55,-33.101 -9.83,0 -17.63,2.519 -21.22,3.84 l 0.83,13.191" style="fill:#5087ce;fill-opacity:1;fill-rule:nonzero;stroke:none" id="path32"/><path d="m 1301.67,528.953 c 0,3.84 -0.13,7.438 -0.48,10.195 h 13.42 c 0.12,-3.718 0.48,-7.554 0.48,-11.273 h 0.24 c 1.8,4.797 6.48,12.23 15.71,12.23 0.97,0 1.68,-0.238 2.52,-0.355 v -13.914 c -1.32,0.359 -2.64,0.602 -4.2,0.602 -6.12,0 -12.83,-3.719 -12.83,-15.231 v -33.82 h -14.86 v 51.566" style="fill:#5087ce;fill-opacity:1;fill-rule:nonzero;stroke:none" id="path34"/><path d="m 1344.81,539.148 h 14.88 v -61.761 h -14.88 z m -0.23,26.266 h 15.35 v -14.633 h -15.35 v 14.633" style="fill:#5087ce;fill-opacity:1;fill-rule:nonzero;stroke:none" id="path36"/><path d="m 1416.52,478.945 c -3.47,-1.316 -8.63,-2.519 -14.63,-2.519 -20.39,0 -29.02,14.273 -29.02,31.781 0,17.629 9.11,31.898 29.85,31.898 4.69,0 10.2,-1.437 12.96,-2.515 l -0.84,-11.754 c -2.64,1.316 -6.35,2.996 -10.44,2.996 -11.27,0 -16.18,-7.555 -16.18,-20.746 0,-11.508 5.52,-20.387 16.91,-20.387 3.59,0 8.51,1.68 10.55,3 l 0.84,-11.754" style="fill:#5087ce;fill-opacity:1;fill-rule:nonzero;stroke:none" id="path38"/><path d="m 1474.43,487.582 c 0,-3.836 0.12,-7.437 0.48,-10.195 h -13.92 c -0.12,3.121 -0.48,6.359 -0.48,9.472 l -0.35,0.121 0.12,-0.121 c -2.88,-4.554 -6.72,-10.433 -16.43,-10.433 -14.04,0 -18.23,10.433 -18.23,22.91 v 39.812 h 14.87 V 502.09 c 0,-9.473 2.64,-13.43 8.87,-13.43 7.92,0 10.2,7.199 10.2,15.11 v 35.378 h 14.87 v -51.566" style="fill:#5087ce;fill-opacity:1;fill-rule:nonzero;stroke:none" id="path40"/><path d="m 1489.27,567.336 h 14.87 v -89.949 h -14.87 v 89.949" style="fill:#5087ce;fill-opacity:1;fill-rule:nonzero;stroke:none" id="path42"/><path d="m 1524.52,551.859 14.87,4.563 v -17.274 h 12.35 v -10.91 h -12.35 v -32.023 c 0,-6.598 2.4,-8.516 6.71,-8.516 2.64,0 4.56,0.723 5.64,1.324 v -10.554 c -2.28,-1.082 -5.51,-2.043 -9.95,-2.043 -11.04,0 -17.27,5.039 -17.27,17.992 v 33.82 h -9.83 v 10.91 h 9.83 v 12.711" style="fill:#5087ce;fill-opacity:1;fill-rule:nonzero;stroke:none" id="path44"/><path d="m 1610.01,487.582 c 0,-3.836 0.11,-7.437 0.48,-10.195 h -13.92 c -0.12,3.121 -0.48,6.359 -0.48,9.472 l -0.35,0.121 0.12,-0.121 c -2.88,-4.554 -6.72,-10.433 -16.44,-10.433 -14.03,0 -18.22,10.433 -18.22,22.91 v 39.812 h 14.87 V 502.09 c 0,-9.473 2.64,-13.43 8.87,-13.43 7.92,0 10.2,7.199 10.2,15.11 v 35.378 h 14.87 v -51.566" style="fill:#5087ce;fill-opacity:1;fill-rule:nonzero;stroke:none" id="path46"/><path d="m 1623.9,528.953 c 0,3.84 -0.13,7.438 -0.48,10.195 h 13.42 c 0.12,-3.718 0.48,-7.554 0.48,-11.273 h 0.24 c 1.81,4.797 6.48,12.23 15.71,12.23 0.97,0 1.68,-0.238 2.53,-0.355 v -13.914 c -1.33,0.359 -2.64,0.602 -4.21,0.602 -6.11,0 -12.83,-3.719 -12.83,-15.231 v -33.82 h -14.86 v 51.566" style="fill:#5087ce;fill-opacity:1;fill-rule:nonzero;stroke:none" id="path48"/><path d="m 1698.47,513.605 c 0,10.911 -3.61,16.43 -10.32,16.43 -7.79,0 -11.03,-8.277 -11.03,-16.43 z m 11.27,-33.218 c -3.12,-1.321 -9.59,-3.961 -18.47,-3.961 -19.91,0 -28.54,14.273 -28.54,30.941 0,18.469 9.71,32.738 25.42,32.738 13.31,0 24.7,-7.792 24.7,-32.98 v -2.879 h -35.73 c 0,-10.547 4.2,-16.902 15.71,-16.902 9.11,0 13.42,2.758 16.18,4.797 l 0.73,-11.754" style="fill:#5087ce;fill-opacity:1;fill-rule:nonzero;stroke:none" id="path50"/><path d="m 707.805,352.426 c 9.711,0 17.508,8.277 17.508,31.304 0,23.028 -7.797,31.305 -17.508,31.305 -9.715,0 -17.512,-8.277 -17.512,-31.305 0,-23.027 7.797,-31.304 17.512,-31.304 z m 0,74.355 c 17.386,0 33.332,-12.949 33.332,-43.051 0,-30.101 -15.946,-43.05 -33.332,-43.05 -17.391,0 -33.34,12.949 -33.34,43.05 0,30.102 15.949,43.051 33.34,43.051" style="fill:#5087ce;fill-opacity:1;fill-rule:nonzero;stroke:none" id="path52"/><path d="m 753.824,393.445 c 0,3.84 -0.125,7.438 -0.48,10.2 h 13.429 c 0.122,-3.723 0.477,-7.559 0.477,-11.278 h 0.246 c 1.801,4.797 6.473,12.235 15.707,12.235 0.969,0 1.68,-0.243 2.524,-0.36 v -13.914 c -1.325,0.36 -2.645,0.602 -4.204,0.602 -6.117,0 -12.828,-3.719 -12.828,-15.231 v -33.82 h -14.871 v 51.566" style="fill:#5087ce;fill-opacity:1;fill-rule:nonzero;stroke:none" id="path54"/><path d="m 817.719,352.789 c 9.355,0 13.074,6.719 13.074,20.75 0,12.949 -4.918,19.906 -11.992,19.785 -7.801,-0.117 -10.793,-7.312 -10.793,-19.906 0,-14.512 4.672,-20.629 9.711,-20.629 z M 796.25,332.285 c 3.48,-1.918 10.434,-5.277 18.23,-5.277 14.032,0 16.313,9.715 16.313,19.422 v 5.879 h -0.234 c -2.407,-4.797 -6.598,-10.43 -16.321,-10.43 -8.633,0 -21.582,5.754 -21.582,30.699 0,17.031 6.117,32.024 22.305,32.024 9,0 13.191,-5.161 16.309,-10.555 h 0.488 c 0,3.238 0.355,6.359 0.476,9.598 h 13.43 c -0.234,-3.239 -0.476,-6.481 -0.476,-9.719 v -45.574 c 0,-19.305 -5.875,-33.098 -28.547,-33.098 -9.832,0 -17.633,2.519 -21.227,3.84 l 0.836,13.191" style="fill:#5087ce;fill-opacity:1;fill-rule:nonzero;stroke:none" id="path56"/><path d="m 890.973,372.102 h -1.325 c -12.714,0 -20.269,-2.645 -20.269,-11.637 0,-5.637 3.726,-9.473 9.476,-9.473 8.879,0 12.118,6.598 12.118,17.625 z m -29.27,27.941 c 4.203,1.922 10.078,4.559 19.559,4.559 19.187,0 23.625,-9.36 23.625,-24.829 v -26.984 c 0,-4.437 0.48,-8.516 0.836,-10.91 h -13.438 c -0.715,2.394 -0.836,5.391 -0.836,8.391 h -0.242 c -3.719,-5.036 -8.391,-9.356 -17.266,-9.356 -9.601,0 -18.468,6.598 -18.468,18.109 0,16.793 13.672,20.993 32.496,20.993 h 3.004 v 2.281 c 0,6.109 -3.004,11.75 -11.516,11.75 -7.441,0 -14.027,-3.598 -16.906,-5.996 l -0.848,11.992" style="fill:#5087ce;fill-opacity:1;fill-rule:nonzero;stroke:none" id="path58"/><path d="m 918.648,393.445 c 0,3.84 -0.125,7.438 -0.472,10.2 h 13.898 c 0.121,-3.122 0.481,-6.36 0.481,-9.481 h 0.242 c 2.16,3.723 6.351,10.438 16.433,10.438 14.028,0 18.231,-10.438 18.231,-22.907 V 341.879 H 952.59 v 37.059 c 0,9.468 -2.402,13.429 -8.524,13.429 -7.789,0 -10.546,-6.597 -10.546,-14.512 v -35.976 h -14.872 v 51.566" style="fill:#5087ce;fill-opacity:1;fill-rule:nonzero;stroke:none" id="path60"/><path d="m 982.301,403.645 h 14.871 v -61.766 h -14.871 z m -0.231,26.257 h 15.348 V 415.273 H 982.07 v 14.629" style="fill:#5087ce;fill-opacity:1;fill-rule:nonzero;stroke:none" id="path62"/><path d="m 1008.68,354.707 26.38,37.66 h -25.55 v 11.278 h 40.43 V 390.93 l -25.91,-37.782 h 26.74 v -11.269 h -42.09 v 12.828" style="fill:#5087ce;fill-opacity:1;fill-rule:nonzero;stroke:none" id="path64"/><path d="m 1093.09,372.102 h -1.33 c -12.7,0 -20.27,-2.645 -20.27,-11.637 0,-5.637 3.72,-9.473 9.48,-9.473 8.88,0 12.12,6.598 12.12,17.625 z m -29.27,27.941 c 4.2,1.922 10.08,4.559 19.55,4.559 19.19,0 23.63,-9.36 23.63,-24.829 v -26.984 c 0,-4.437 0.48,-8.516 0.84,-10.91 h -13.43 c -0.72,2.394 -0.85,5.391 -0.85,8.391 h -0.24 c -3.72,-5.036 -8.39,-9.356 -17.27,-9.356 -9.59,0 -18.46,6.598 -18.46,18.109 0,16.793 13.67,20.993 32.49,20.993 h 3.01 v 2.281 c 0,6.109 -3.01,11.75 -11.52,11.75 -7.44,0 -14.04,-3.598 -16.91,-5.996 l -0.84,11.992" style="fill:#5087ce;fill-opacity:1;fill-rule:nonzero;stroke:none" id="path66"/><path d="m 1126.28,416.352 14.87,4.562 v -17.269 h 12.35 V 392.73 h -12.35 v -32.027 c 0,-6.598 2.39,-8.515 6.71,-8.515 2.64,0 4.56,0.722 5.64,1.324 v -10.559 c -2.28,-1.074 -5.52,-2.039 -9.96,-2.039 -11.03,0 -17.26,5.039 -17.26,17.992 v 33.824 h -9.83 v 10.915 h 9.83 v 12.707" style="fill:#5087ce;fill-opacity:1;fill-rule:nonzero;stroke:none" id="path68"/><path d="m 1164.39,403.645 h 14.87 v -61.766 h -14.87 z m -0.23,26.257 h 15.35 v -14.629 h -15.35 v 14.629" style="fill:#5087ce;fill-opacity:1;fill-rule:nonzero;stroke:none" id="path70"/><path d="m 1219.67,351.469 c 9.6,0 11.76,11.035 11.76,21.347 0,10.313 -2.16,21.231 -11.76,21.231 -9.59,0 -11.87,-10.918 -11.87,-21.231 0,-10.312 2.28,-21.347 11.87,-21.347 z m 0,53.133 c 12.59,0 27.11,-6.598 27.11,-31.786 0,-25.902 -14.52,-31.902 -27.11,-31.902 -12.59,0 -27.22,6 -27.22,31.902 0,25.188 14.63,31.786 27.22,31.786" style="fill:#5087ce;fill-opacity:1;fill-rule:nonzero;stroke:none" id="path72"/><path d="m 1258.5,393.445 c 0,3.84 -0.12,7.438 -0.48,10.2 h 13.91 c 0.12,-3.122 0.48,-6.36 0.48,-9.481 h 0.24 c 2.16,3.723 6.35,10.438 16.43,10.438 14.03,0 18.23,-10.438 18.23,-22.907 v -39.816 h -14.87 v 37.059 c 0,9.468 -2.4,13.429 -8.52,13.429 -7.79,0 -10.55,-6.597 -10.55,-14.512 v -35.976 h -14.87 v 51.566" style="fill:#5087ce;fill-opacity:1;fill-rule:nonzero;stroke:none" id="path74"/><path d="m 1377.43,351.469 c 9.6,0 11.75,11.035 11.75,21.347 0,10.313 -2.15,21.231 -11.75,21.231 -9.59,0 -11.87,-10.918 -11.87,-21.231 0,-10.312 2.28,-21.347 11.87,-21.347 z m 0,53.133 c 12.59,0 27.11,-6.598 27.11,-31.786 0,-25.902 -14.52,-31.902 -27.11,-31.902 -12.59,0 -27.22,6 -27.22,31.902 0,25.188 14.63,31.786 27.22,31.786" style="fill:#5087ce;fill-opacity:1;fill-rule:nonzero;stroke:none" id="path76"/><path d="m 1421.06,392.73 h -10.31 v 10.915 h 10.31 v 12.589 c 0,8.868 4.19,17.028 17.75,17.028 3.95,0 7.79,-0.84 10.67,-1.442 l -0.6,-10.789 c -1.8,0.477 -3.72,0.961 -5.88,0.961 -4.31,0 -7.07,-3 -7.07,-7.676 v -10.671 h 11.27 V 392.73 h -11.27 v -50.851 h -14.87 v 50.851" style="fill:#5087ce;fill-opacity:1;fill-rule:nonzero;stroke:none" id="path78"/><path d="m 1492.87,416.352 14.86,4.562 v -17.269 h 12.35 V 392.73 h -12.35 v -32.027 c 0,-6.598 2.4,-8.515 6.71,-8.515 2.64,0 4.56,0.722 5.64,1.324 v -10.559 c -2.28,-1.074 -5.51,-2.039 -9.95,-2.039 -11.04,0 -17.26,5.039 -17.26,17.992 v 33.824 h -9.84 v 10.915 h 9.84 v 12.707" style="fill:#5087ce;fill-opacity:1;fill-rule:nonzero;stroke:none" id="path80"/><path d="m 1529.54,431.82 h 14.87 v -36.093 h 0.36 c 2.64,3.839 6.12,8.875 15.35,8.875 14.03,0 18.23,-10.438 18.23,-22.907 v -39.816 h -14.87 v 37.059 c 0,9.468 -2.41,13.429 -8.52,13.429 -7.79,0 -10.55,-6.597 -10.55,-14.512 v -35.976 h -14.87 v 89.941" style="fill:#5087ce;fill-opacity:1;fill-rule:nonzero;stroke:none" id="path82"/><path d="m 1625.82,378.098 c 0,10.91 -3.6,16.429 -10.32,16.429 -7.79,0 -11.03,-8.277 -11.03,-16.429 z m 11.26,-33.227 c -3.11,-1.316 -9.58,-3.957 -18.46,-3.957 -19.91,0 -28.54,14.274 -28.54,30.945 0,18.469 9.71,32.743 25.42,32.743 13.31,0 24.7,-7.793 24.7,-32.985 v -2.879 h -35.73 c 0,-10.55 4.2,-16.906 15.71,-16.906 9.11,0 13.42,2.758 16.18,4.793 l 0.72,-11.754" style="fill:#5087ce;fill-opacity:1;fill-rule:nonzero;stroke:none" id="path84"/><path d="m 692.449,290.078 v -54.211 c 0,-13.91 4.196,-18.465 13.196,-18.465 8.753,0 13.07,4.555 13.07,18.465 v 54.211 h 15.351 v -54.211 c 0,-22.062 -12.714,-30.699 -28.421,-30.699 -15.832,0 -28.543,8.637 -28.543,30.699 v 54.211 h 15.347" style="fill:#5087ce;fill-opacity:1;fill-rule:nonzero;stroke:none" id="path86"/><path d="m 748.906,257.938 c 0,3.839 -0.121,7.437 -0.476,10.191 h 13.906 c 0.121,-3.113 0.477,-6.352 0.477,-9.473 h 0.246 c 2.156,3.723 6.351,10.43 16.429,10.43 14.028,0 18.231,-10.43 18.231,-22.898 v -39.821 h -14.871 v 37.063 c 0,9.468 -2.403,13.429 -8.524,13.429 -7.785,0 -10.547,-6.593 -10.547,-14.511 v -35.981 h -14.871 v 51.571" style="fill:#5087ce;fill-opacity:1;fill-rule:nonzero;stroke:none" id="path88"/><path d="m 812.559,268.129 h 14.875 v -61.762 h -14.875 z m -0.235,26.266 h 15.352 v -14.633 h -15.352 v 14.633" style="fill:#5087ce;fill-opacity:1;fill-rule:nonzero;stroke:none" id="path90"/><path d="m 847.813,280.84 14.867,4.558 v -17.269 h 12.347 V 257.223 H 862.68 v -32.028 c 0,-6.597 2.394,-8.515 6.711,-8.515 2.636,0 4.558,0.722 5.636,1.324 v -10.559 c -2.277,-1.078 -5.515,-2.039 -9.953,-2.039 -11.031,0 -17.261,5.039 -17.261,17.992 v 33.825 h -9.833 v 10.906 h 9.833 v 12.711" style="fill:#5087ce;fill-opacity:1;fill-rule:nonzero;stroke:none" id="path92"/><path d="m 918.551,242.59 c 0,10.91 -3.606,16.43 -10.324,16.43 -7.789,0 -11.024,-8.278 -11.024,-16.43 z m 11.262,-33.227 c -3.11,-1.316 -9.583,-3.957 -18.461,-3.957 -19.911,0 -28.543,14.274 -28.543,30.946 0,18.468 9.711,32.734 25.418,32.734 13.316,0 24.703,-7.785 24.703,-32.977 v -2.879 h -35.727 c 0,-10.55 4.192,-16.906 15.707,-16.906 9.11,0 13.422,2.758 16.184,4.793 l 0.719,-11.754" style="fill:#5087ce;fill-opacity:1;fill-rule:nonzero;stroke:none" id="path94"/><path d="m 968.531,216.324 c 8.754,0 11.746,9.473 11.746,21.11 0,11.992 -3.359,20.746 -11.511,20.746 -8.278,0 -11.149,-8.039 -11.149,-20.391 0,-14.273 2.281,-21.465 10.914,-21.465 z m 26.614,79.989 v -79.395 c 0,-4.434 0.125,-8.27 0.48,-10.551 h -13.902 c -0.243,1.797 -0.477,5.395 -0.477,9.594 h -0.367 c -2.395,-5.277 -6.832,-10.555 -16.43,-10.555 -15.351,0 -21.707,14.633 -21.707,31.785 0,20.149 8.035,31.895 21.352,31.895 8.875,0 13.793,-5.027 15.949,-9.828 h 0.234 v 37.055 h 14.868" style="fill:#5087ce;fill-opacity:1;fill-rule:nonzero;stroke:none" id="path96"/><path d="m 1042.01,290.078 h 18.22 l 27.83,-65.723 h 0.24 v 65.723 h 13.91 v -83.711 h -18.35 l -27.71,65.238 h -0.23 v -65.238 h -13.91 v 83.711" style="fill:#5087ce;fill-opacity:1;fill-rule:nonzero;stroke:none" id="path98"/><path d="m 1149.91,236.594 h -1.33 c -12.7,0 -20.26,-2.645 -20.26,-11.637 0,-5.637 3.71,-9.473 9.47,-9.473 8.88,0 12.12,6.594 12.12,17.625 z m -29.27,27.941 c 4.2,1.914 10.08,4.551 19.56,4.551 19.18,0 23.62,-9.352 23.62,-24.816 v -26.989 c 0,-4.437 0.48,-8.515 0.84,-10.914 h -13.43 c -0.72,2.399 -0.84,5.395 -0.84,8.395 h -0.25 c -3.71,-5.035 -8.39,-9.356 -17.26,-9.356 -9.6,0 -18.47,6.598 -18.47,18.11 0,16.793 13.67,20.992 32.49,20.992 h 3.01 v 2.277 c 0,6.113 -3.01,11.754 -11.52,11.754 -7.44,0 -14.03,-3.598 -16.91,-5.996 l -0.84,11.992" style="fill:#5087ce;fill-opacity:1;fill-rule:nonzero;stroke:none" id="path100"/><path d="m 1183.1,280.84 14.87,4.558 v -17.269 h 12.35 v -10.906 h -12.35 v -32.028 c 0,-6.597 2.4,-8.515 6.71,-8.515 2.64,0 4.56,0.722 5.64,1.324 v -10.559 c -2.28,-1.078 -5.52,-2.039 -9.95,-2.039 -11.04,0 -17.27,5.039 -17.27,17.992 v 33.825 h -9.83 v 10.906 h 9.83 v 12.711" style="fill:#5087ce;fill-opacity:1;fill-rule:nonzero;stroke:none" id="path102"/><path d="m 1221.22,268.129 h 14.87 v -61.762 h -14.87 z m -0.24,26.266 h 15.35 v -14.633 h -15.35 v 14.633" style="fill:#5087ce;fill-opacity:1;fill-rule:nonzero;stroke:none" id="path104"/><path d="m 1276.49,215.961 c 9.6,0 11.76,11.035 11.76,21.348 0,10.312 -2.16,21.23 -11.76,21.23 -9.59,0 -11.87,-10.918 -11.87,-21.23 0,-10.313 2.28,-21.348 11.87,-21.348 z m 0,53.125 c 12.59,0 27.11,-6.59 27.11,-31.777 0,-25.903 -14.52,-31.903 -27.11,-31.903 -12.59,0 -27.22,6 -27.22,31.903 0,25.187 14.63,31.777 27.22,31.777" style="fill:#5087ce;fill-opacity:1;fill-rule:nonzero;stroke:none" id="path106"/><path d="m 1315.32,257.938 c 0,3.839 -0.12,7.437 -0.48,10.191 h 13.91 c 0.12,-3.113 0.48,-6.352 0.48,-9.473 h 0.24 c 2.16,3.723 6.36,10.43 16.43,10.43 14.03,0 18.24,-10.43 18.24,-22.898 v -39.821 h -14.88 v 37.063 c 0,9.468 -2.4,13.429 -8.52,13.429 -7.79,0 -10.54,-6.593 -10.54,-14.511 v -35.981 h -14.88 v 51.571" style="fill:#5087ce;fill-opacity:1;fill-rule:nonzero;stroke:none" id="path108"/><path d="m 1375.86,220.758 c 2.39,-0.957 8.51,-4.078 15.47,-4.078 5.4,0 9.59,1.324 9.59,6.117 0,2.398 -1.2,4.68 -6.59,7.801 l -6.12,3.597 c -6.23,3.715 -13.07,7.676 -13.07,17.387 0,8.516 8.27,17.504 21.34,17.504 7.92,0 14.04,-2.035 15.48,-2.52 l -0.85,-11.507 c -3.71,1.441 -7.67,2.757 -13.07,2.757 -5.99,0 -8.51,-2.273 -8.51,-5.996 0,-3.359 2.64,-5.156 6.95,-7.914 l 7.32,-4.676 c 7.68,-4.917 11.52,-8.394 11.52,-15.593 0,-11.391 -9.6,-18.231 -23.03,-18.231 -7.68,0 -14.04,1.801 -17.15,3 l 0.72,12.352" style="fill:#5087ce;fill-opacity:1;fill-rule:nonzero;stroke:none" id="path110"/></g></g></svg>