<?xml version="1.0" encoding="UTF-8"?><svg xmlns="http://www.w3.org/2000/svg" viewBox="0 0 205.195 56.693"><g id="a"/><g id="b"><g id="c"><g id="d"><g id="e"><path id="f" d="M46.467,33.505l.72,.374-.071,.084c-.235,.284-.34,.432-.451,.752-.055,.146-.121,.425-.011,.637,.053,.111,.149,.193,.287,.237,.321,.109,.597-.17,.914-.494,.444-.451,.993-1.007,1.882-.709,.902,.307,1.209,1.11,.835,2.205-.113,.334-.32,.618-.51,.882l-.044,.056-.745-.347,.075-.087c.089-.106,.4-.47,.516-.831,.114-.317,.103-.855-.381-1.018-.4-.139-.701,.171-1.052,.532-.426,.448-.914,.953-1.719,.679-.354-.119-.618-.345-.768-.643-.182-.367-.188-.833-.019-1.322,.107-.329,.289-.668,.498-.931l.042-.057Zm-1.822,4.034l4.204,2.437-.428,.738-4.226-2.445,.45-.73Zm-1.659,2.416l3.63,3.238-.654,.766s-3.403-.994-3.919-1.132c.383,.367,2.495,2.593,2.495,2.593l-.637,.576-3.42-3.475,.803-.719s3.284,.98,3.8,1.116c-.383-.364-2.65-2.314-2.65-2.314l.552-.648Zm-4.278,7.432c.125-.059,.447-.236,.768-.429,.286-.174,.516-.318,.632-.41-.169-.128-1.469-1.116-1.739-1.324,.055,.339,.305,1.951,.339,2.163Zm-.477-3.23l4.162,3.049-.74,.521s-.836-.635-.919-.697c-.049,.027-.478,.331-.941,.605-.437,.263-.908,.497-.956,.524,.02,.109,.183,1.13,.183,1.13l-.795,.38-.698-5.103,.704-.407Zm-4.644,2.885c.041,.141,.394,1.271,.436,1.409,.176-.052,.56-.174,.56-.174,.127-.037,.428-.157,.571-.431,.047-.09,.072-.19,.072-.294,0-.079-.016-.16-.041-.247-.055-.166-.155-.293-.307-.371-.259-.139-.607-.104-.826-.039,0,0-.347,.108-.465,.146Zm1.782-.871c.315,.166,.544,.459,.668,.875,.055,.177,.085,.345,.085,.507,0,.671-.469,1.197-1.317,1.464,0,0-.428,.133-.555,.17,.05,.153,.555,1.778,.555,1.778l-.842,.218-1.427-4.623,1.275-.396c.638-.198,1.167-.195,1.557,.008Zm-15.161-.966s.779,.387,1.883,.765c.754,.261,1.393,.465,2.02,.603l-.219,.73s-.598-.106-1.572-.405c-.056,.16-1.322,3.779-1.322,3.779l-.868-.301s1.262-3.624,1.317-3.782c-.908-.339-1.539-.676-1.539-.676l.3-.713Zm-5.164,.287c.086,.073,.398,.326,.721,.556,.328,.229,.657,.446,.753,.489,.047-.211,.383-1.881,.453-2.191-.273,.163-1.733,1.031-1.927,1.146Zm2.129-2.156l.728,.521-.944,5.077-.836-.481s.209-1.034,.234-1.135c-.041-.032-.528-.323-.999-.657-.48-.342-.946-.728-.991-.758-.091,.055-1.015,.601-1.015,.601l-.715-.611,4.491-2.53,.047-.028Zm-3.411-3.228l.585,.706-3.681,3.078-.597-.706,3.649-3.049,.044-.03Zm-2.661-4.316s.372,.793,.676,1.354c.301,.563,.712,1.241,.712,1.241l-.666,.388s-.505-.841-.968-1.813c-.127,.065-.925,.48-1.057,.545,.077,.142,.894,1.716,.894,1.716l-.674,.388s-.828-1.609-.899-1.745c-.144,.071-1.863,.958-1.863,.958l-.411-.817,4.209-2.191,.047-.025Zm42.46-7.446c0-7.527-3.318-14.289-8.559-18.917l-10.101,25.669c.671,4.193-.572,7.56-3.588,8.558-1.954,.648-2.062,1.637-2.062,4.563,0,.158,0-.22,0,.351,0,2.08,.158,3.855,.301,4.959,13.345-.63,24.01-11.683,24.01-25.183Zm-25.122-.708l.118-.956c.489-2.22,2.101-1.943,3.219-4.123l.019-.033c.033-.081,5.511-11.835,7.797-16.743-3.387-1.694-7.205-2.653-11.245-2.653s-7.858,.959-11.247,2.653c2.285,4.907,7.761,16.661,7.806,16.743,0,0,.01,.025,.017,.033,1.112,2.18,2.721,1.903,3.21,4.123l.119,.956h.188Zm-.107,2.978c-1.703-.38-3.825-2.072-4.102-4.249-.099-.828-.179-1.058-.058-2.703L16.427,6.135c-.623,.336-1.231,.7-1.827,1.089,2.316,5.204,9.395,21.099,9.4,21.119,1.121,2.359,3.086,2.405,3.765,3.811,.409,.833,.445,1.579,.451,1.639h.259c.005-.06,.047-.806,.45-1.639,.682-1.406,2.647-1.453,3.765-3.811,.005-.019,7.087-15.915,9.4-21.119-.588-.388-1.201-.752-1.828-1.089l-7.735,17.53c.121,1.645,.041,1.876-.067,2.703-.276,2.177-2.399,3.869-4.093,4.249h-.035Zm.005,6.547c-4.016-.937-5.507-4.596-5.507-7.845L13.993,7.63c-.577,.399-1.137,.826-1.679,1.267,1.944,4.607,10.667,25.308,10.679,25.338,1.543,3.719,4.352,2.487,5.031,5.557,.163,.743,.174,1.069,.174,1.069h.301s.006-.326,.174-1.069c.679-3.07,3.48-1.838,5.026-5.557,.011-.03,8.735-20.731,10.675-25.338-.541-.442-1.098-.868-1.678-1.267l-8.834,21.689c0,3.249-1.493,6.908-5.509,7.845h-.016Zm-1.198,16.366c.151-1.105,.301-2.88,.301-4.959,0-.57,0-.193,0-.351,0-2.926-.107-3.915-2.061-4.563-3.017-.999-4.251-4.365-3.589-8.558L11.697,9.43C6.447,14.058,3.135,20.82,3.135,28.347c0,13.499,10.667,24.553,24.004,25.183Zm17.04-29.319c0-2.193,.538-3.977,2.089-3.977s2.117,1.784,2.117,3.977-.56,3.979-2.117,3.979-2.089-1.786-2.089-3.979Zm-2.755,0c0,3.357,1.557,5.909,4.844,5.909s4.869-2.552,4.869-5.909-1.573-5.909-4.869-5.909-4.844,2.551-4.844,5.909Zm-11.975-11.187h-2.377l1.107-4.97h.182l1.088,4.97Zm1.134,4.489h2.728l-3.17-11.428h-3.485l-3.284,11.428h2.525l.726-2.554h3.307l.654,2.554ZM6.894,29.924h2.586v-4.778h4.344v-2.001h-4.344v-2.655h4.487v-1.995H6.894v11.428Zm21.345-12.755c.036,0,2.303,2.427,2.303,4.37,0,2.104-1.64,2.606-2.195,2.606-.028,0-.061-.004-.096-.006h-.022c-.035,.002-.072,.006-.096,.006-.552,0-2.194-.503-2.194-2.606,0-1.944,2.26-4.37,2.301-4.37Zm.108,39.523C12.718,56.693,0,43.978,0,28.347S12.718,0,28.348,0s28.345,12.717,28.345,28.347-12.715,28.345-28.345,28.345" fill="#5087ce"/><path id="g" d="M67.191,5.958h5.645v1.631h-3.598v3.039h3.438v1.631h-3.438v4.861h-2.047V5.958" fill="#5087ce"/><path id="h" d="M77.309,15.841c1.28,0,1.568-1.472,1.568-2.846s-.287-2.831-1.568-2.831-1.583,1.456-1.583,2.831,.304,2.846,1.583,2.846Zm0-7.083c1.679,0,3.615,.879,3.615,4.237,0,3.453-1.935,4.253-3.615,4.253s-3.629-.8-3.629-4.253c0-3.358,1.95-4.237,3.629-4.237" fill="#5087ce"/><path id="i" d="M85.893,15.841c1.28,0,1.568-1.472,1.568-2.846s-.287-2.831-1.568-2.831-1.583,1.456-1.583,2.831,.304,2.846,1.583,2.846Zm0-7.083c1.679,0,3.615,.879,3.615,4.237,0,3.453-1.935,4.253-3.615,4.253s-3.629-.8-3.629-4.253c0-3.358,1.95-4.237,3.629-4.237" fill="#5087ce"/><path id="j" d="M94.284,15.792c1.168,0,1.567-1.263,1.567-2.813,0-1.599-.448-2.767-1.535-2.767-1.104,0-1.487,1.072-1.487,2.719,0,1.903,.304,2.861,1.455,2.861Zm3.55-10.666V15.713c0,.591,.017,1.103,.064,1.407h-1.854c-.032-.24-.064-.719-.064-1.279h-.048c-.319,.704-.911,1.407-2.191,1.407-2.046,0-2.893-1.951-2.893-4.237,0-2.686,1.07-4.253,2.846-4.253,1.184,0,1.84,.671,2.127,1.311h.031V5.127h1.983" fill="#5087ce"/><path id="k" d="M108.111,13.091h-.177c-1.695,0-2.702,.352-2.702,1.55,0,.751,.496,1.263,1.263,1.263,1.183,0,1.615-.88,1.615-2.349v-.464Zm-3.902-3.726c.56-.256,1.343-.607,2.607-.607,2.558,0,3.151,1.247,3.151,3.31v3.597c0,.592,.063,1.135,.11,1.455h-1.791c-.095-.32-.111-.719-.111-1.119h-.032c-.495,.671-1.119,1.247-2.302,1.247-1.28,0-2.462-.88-2.462-2.415,0-2.239,1.822-2.798,4.332-2.798h.401v-.304c0-.815-.401-1.567-1.535-1.567-.993,0-1.871,.48-2.255,.799l-.113-1.599" fill="#5087ce"/><path id="l" d="M111.801,10.244c0-.512-.016-.992-.064-1.359h1.855c.016,.416,.064,.847,.064,1.263h.032c.288-.496,.848-1.391,2.191-1.391,1.871,0,2.431,1.391,2.431,3.054v5.309h-1.983v-4.941c0-1.264-.32-1.791-1.136-1.791-1.039,0-1.405,.88-1.405,1.935v4.797h-1.984v-6.875" fill="#5087ce"/><path id="m" d="M123.312,15.792c1.167,0,1.565-1.263,1.565-2.813,0-1.599-.448-2.767-1.535-2.767-1.104,0-1.487,1.072-1.487,2.719,0,1.903,.304,2.861,1.456,2.861Zm3.548-10.666V15.713c0,.591,.017,1.103,.064,1.407h-1.853c-.033-.24-.064-.719-.064-1.279h-.049c-.319,.704-.911,1.407-2.191,1.407-2.047,0-2.893-1.951-2.893-4.237,0-2.686,1.071-4.253,2.847-4.253,1.183,0,1.839,.671,2.127,1.311h.031V5.127h1.983" fill="#5087ce"/><path id="n" d="M137.409,12.867l-1.408-5.213h-.031l-1.535,5.213h2.973Zm.432,1.566h-3.837l-.8,2.687h-2.047l3.741-11.161h2.239l3.599,11.161h-2.111l-.784-2.687" fill="#5087ce"/><path id="o" d="M144.84,15.665c1.248,0,1.743-.896,1.743-2.766,0-1.727-.656-2.654-1.599-2.638-1.04,.016-1.439,.975-1.439,2.654,0,1.934,.623,2.75,1.295,2.75h0Zm-2.863,2.734c.464,.256,1.392,.704,2.431,.704,1.871,0,2.175-1.295,2.175-2.59v-.784h-.031c-.32,.64-.88,1.391-2.176,1.391-1.151,0-2.877-.768-2.877-4.093,0-2.271,.816-4.269,2.973-4.269,1.2,0,1.76,.687,2.175,1.407h.064c0-.432,.048-.848,.065-1.279h1.789c-.031,.431-.063,.863-.063,1.295v6.076c0,2.574-.784,4.413-3.807,4.413-1.311,0-2.351-.336-2.829-.512l.111-1.759" fill="#5087ce"/><path id="p" d="M150.371,10.244c0-.512-.017-.992-.064-1.359h1.789c.016,.496,.064,1.007,.064,1.503h.032c.24-.64,.864-1.631,2.095-1.631,.129,0,.224,.032,.336,.047v1.855c-.176-.048-.352-.08-.56-.08-.816,0-1.711,.496-1.711,2.031v4.509h-1.981v-6.875" fill="#5087ce"/><path id="q" d="M156.123,8.885h1.984v8.235h-1.984V8.885Zm-.031-3.502h2.047v1.951h-2.047v-1.951" fill="#5087ce"/><path id="r" d="M165.684,16.912c-.463,.175-1.151,.336-1.951,.336-2.719,0-3.869-1.903-3.869-4.237,0-2.351,1.215-4.253,3.98-4.253,.625,0,1.36,.192,1.728,.335l-.112,1.567c-.352-.175-.847-.399-1.392-.399-1.503,0-2.157,1.007-2.157,2.766,0,1.534,.736,2.718,2.255,2.718,.479,0,1.135-.224,1.407-.4l.112,1.567" fill="#5087ce"/><path id="s" d="M173.405,15.76c0,.511,.016,.992,.064,1.359h-1.856c-.016-.416-.064-.848-.064-1.263l-.047-.016,.016,.016c-.384,.607-.896,1.391-2.191,1.391-1.872,0-2.431-1.391-2.431-3.055v-5.308h1.983v4.941c0,1.263,.352,1.791,1.183,1.791,1.056,0,1.36-.96,1.36-2.015v-4.717h1.983v6.875" fill="#5087ce"/><path id="t" d="M175.384,5.127h1.983v11.993h-1.983V5.127" fill="#5087ce"/><path id="u" d="M180.084,7.19l1.983-.608v2.303h1.647v1.455h-1.647v4.27c0,.88,.32,1.135,.895,1.135,.352,0,.608-.096,.752-.177v1.407c-.304,.144-.735,.272-1.327,.272-1.472,0-2.303-.672-2.303-2.399v-4.509h-1.311v-1.455h1.311v-1.695" fill="#5087ce"/><path id="v" d="M191.483,15.76c0,.511,.015,.992,.064,1.359h-1.856c-.016-.416-.064-.848-.064-1.263l-.047-.016,.016,.016c-.384,.607-.896,1.391-2.192,1.391-1.871,0-2.429-1.391-2.429-3.055v-5.308h1.983v4.941c0,1.263,.352,1.791,1.183,1.791,1.056,0,1.36-.96,1.36-2.015v-4.717h1.983v6.875" fill="#5087ce"/><path id="w" d="M193.335,10.244c0-.512-.017-.992-.064-1.359h1.789c.016,.496,.064,1.007,.064,1.503h.032c.241-.64,.864-1.631,2.095-1.631,.129,0,.224,.032,.337,.047v1.855c-.177-.048-.352-.08-.561-.08-.815,0-1.711,.496-1.711,2.031v4.509h-1.981v-6.875" fill="#5087ce"/><path id="x" d="M203.277,12.291c0-1.455-.481-2.191-1.376-2.191-1.039,0-1.471,1.104-1.471,2.191h2.847Zm1.503,4.429c-.416,.176-1.279,.528-2.463,.528-2.655,0-3.805-1.903-3.805-4.125,0-2.463,1.295-4.365,3.389-4.365,1.775,0,3.293,1.039,3.293,4.397v.384h-4.764c0,1.406,.56,2.254,2.095,2.254,1.215,0,1.789-.368,2.157-.64l.097,1.567" fill="#5087ce"/><path id="y" d="M71.189,33.781c1.295,0,2.334-1.104,2.334-4.174s-1.04-4.174-2.334-4.174-2.335,1.104-2.335,4.174,1.04,4.174,2.335,4.174Zm0-9.914c2.318,0,4.444,1.727,4.444,5.74s-2.126,5.74-4.444,5.74-4.445-1.727-4.445-5.74,2.127-5.74,4.445-5.74" fill="#5087ce"/><path id="a`" d="M77.324,28.312c0-.512-.017-.992-.064-1.36h1.791c.016,.496,.064,1.008,.064,1.504h.033c.24-.64,.863-1.631,2.094-1.631,.129,0,.224,.032,.337,.048v1.855c-.177-.048-.353-.08-.561-.08-.816,0-1.71,.496-1.71,2.031v4.509h-1.983v-6.875" fill="#5087ce"/><path id="aa" d="M85.844,33.733c1.247,0,1.743-.896,1.743-2.767,0-1.727-.656-2.654-1.599-2.638-1.04,.016-1.439,.975-1.439,2.654,0,1.935,.623,2.751,1.295,2.751Zm-2.863,2.734c.464,.256,1.391,.704,2.431,.704,1.871,0,2.175-1.295,2.175-2.59v-.784h-.031c-.321,.64-.88,1.391-2.176,1.391-1.151,0-2.878-.767-2.878-4.093,0-2.271,.816-4.27,2.974-4.27,1.2,0,1.759,.688,2.175,1.407h.065c0-.432,.047-.848,.063-1.28h1.791c-.031,.432-.063,.864-.063,1.296v6.077c0,2.574-.783,4.413-3.806,4.413-1.311,0-2.351-.336-2.83-.512l.111-1.759" fill="#5087ce"/><path id="ab" d="M95.611,31.158h-.177c-1.695,0-2.703,.353-2.703,1.552,0,.752,.497,1.263,1.263,1.263,1.184,0,1.616-.88,1.616-2.35v-.465Zm-3.903-3.725c.56-.256,1.344-.608,2.608-.608,2.558,0,3.15,1.248,3.15,3.311v3.598c0,.592,.064,1.135,.111,1.455h-1.792c-.095-.319-.111-.719-.111-1.119h-.032c-.496,.671-1.119,1.247-2.302,1.247-1.28,0-2.462-.88-2.462-2.415,0-2.239,1.823-2.799,4.333-2.799h.401v-.304c0-.815-.401-1.567-1.535-1.567-.992,0-1.87,.48-2.254,.799l-.113-1.599" fill="#5087ce"/><path id="ac" d="M99.301,28.312c0-.512-.017-.992-.063-1.36h1.853c.016,.416,.064,.848,.064,1.264h.032c.288-.496,.847-1.392,2.191-1.392,1.87,0,2.431,1.392,2.431,3.054v5.309h-1.983v-4.941c0-1.262-.32-1.791-1.137-1.791-1.039,0-1.406,.88-1.406,1.935v4.797h-1.983v-6.875" fill="#5087ce"/><path id="ad" d="M107.788,26.952h1.983v8.235h-1.983v-8.235Zm-.031-3.501h2.046v1.951h-2.046v-1.951" fill="#5087ce"/><path id="ae" d="M111.305,33.477l3.517-5.021h-3.407v-1.504h5.391v1.695l-3.455,5.038h3.565v1.503h-5.612v-1.71" fill="#5087ce"/><path id="af" d="M122.56,31.158h-.177c-1.693,0-2.703,.353-2.703,1.552,0,.752,.496,1.263,1.264,1.263,1.184,0,1.616-.88,1.616-2.35v-.465Zm-3.903-3.725c.56-.256,1.344-.608,2.607-.608,2.559,0,3.151,1.248,3.151,3.311v3.598c0,.592,.064,1.135,.112,1.455h-1.791c-.096-.319-.113-.719-.113-1.119h-.032c-.496,.671-1.119,1.247-2.303,1.247-1.279,0-2.461-.88-2.461-2.415,0-2.239,1.823-2.799,4.332-2.799h.401v-.304c0-.815-.401-1.567-1.536-1.567-.992,0-1.872,.48-2.255,.799l-.112-1.599" fill="#5087ce"/><path id="ag" d="M126.985,25.258l1.983-.608v2.303h1.647v1.455h-1.647v4.27c0,.88,.319,1.135,.895,1.135,.352,0,.608-.096,.752-.177v1.408c-.304,.143-.736,.272-1.328,.272-1.471,0-2.301-.672-2.301-2.399v-4.51h-1.311v-1.455h1.311v-1.694" fill="#5087ce"/><path id="ah" d="M132.067,26.952h1.983v8.235h-1.983v-8.235Zm-.031-3.501h2.047v1.951h-2.047v-1.951" fill="#5087ce"/><path id="ai" d="M139.437,33.909c1.28,0,1.568-1.471,1.568-2.846s-.288-2.831-1.568-2.831-1.583,1.456-1.583,2.831,.304,2.846,1.583,2.846Zm0-7.084c1.679,0,3.615,.88,3.615,4.238,0,3.454-1.936,4.254-3.615,4.254s-3.629-.8-3.629-4.254c0-3.358,1.951-4.238,3.629-4.238" fill="#5087ce"/><path id="aj" d="M144.615,28.312c0-.512-.016-.992-.064-1.36h1.855c.016,.416,.064,.848,.064,1.264h.032c.288-.496,.847-1.392,2.191-1.392,1.871,0,2.431,1.392,2.431,3.054v5.309h-1.983v-4.941c0-1.262-.32-1.791-1.136-1.791-1.039,0-1.407,.88-1.407,1.935v4.797h-1.983v-6.875" fill="#5087ce"/><path id="ak" d="M160.472,33.909c1.28,0,1.567-1.471,1.567-2.846s-.287-2.831-1.567-2.831-1.583,1.456-1.583,2.831,.304,2.846,1.583,2.846Zm0-7.084c1.679,0,3.615,.88,3.615,4.238,0,3.454-1.936,4.254-3.615,4.254s-3.629-.8-3.629-4.254c0-3.358,1.951-4.238,3.629-4.238" fill="#5087ce"/><path id="al" d="M166.289,28.407h-1.375v-1.455h1.375v-1.679c0-1.182,.559-2.27,2.367-2.27,.527,0,1.039,.112,1.423,.192l-.08,1.439c-.24-.064-.496-.128-.784-.128-.575,0-.943,.4-.943,1.023v1.423h1.503v1.455h-1.503v6.78h-1.983v-6.78" fill="#5087ce"/><path id="am" d="M175.864,25.258l1.981-.608v2.303h1.647v1.455h-1.647v4.27c0,.88,.32,1.135,.895,1.135,.352,0,.608-.096,.752-.177v1.408c-.304,.143-.735,.272-1.327,.272-1.472,0-2.301-.672-2.301-2.399v-4.51h-1.312v-1.455h1.312v-1.694" fill="#5087ce"/><path id="an" d="M180.753,23.195h1.983v4.812h.048c.352-.512,.816-1.183,2.047-1.183,1.871,0,2.431,1.392,2.431,3.054v5.309h-1.983v-4.941c0-1.262-.321-1.791-1.136-1.791-1.039,0-1.407,.88-1.407,1.935v4.797h-1.983v-11.992" fill="#5087ce"/><path id="ao" d="M193.591,30.358c0-1.455-.48-2.191-1.376-2.191-1.039,0-1.471,1.104-1.471,2.191h2.847Zm1.501,4.43c-.415,.175-1.277,.528-2.461,.528-2.655,0-3.805-1.903-3.805-4.126,0-2.463,1.295-4.366,3.389-4.366,1.775,0,3.293,1.039,3.293,4.398v.384h-4.764c0,1.407,.56,2.254,2.095,2.254,1.215,0,1.789-.368,2.157-.639l.096,1.567" fill="#5087ce"/><path id="ap" d="M69.141,42.094v7.228c0,1.855,.559,2.462,1.759,2.462,1.167,0,1.743-.607,1.743-2.462v-7.228h2.047v7.228c0,2.942-1.695,4.093-3.789,4.093-2.111,0-3.806-1.152-3.806-4.093v-7.228h2.046" fill="#5087ce"/><path id="aq" d="M76.669,46.38c0-.512-.016-.992-.063-1.359h1.854c.016,.415,.064,.847,.064,1.263h.033c.287-.496,.847-1.391,2.191-1.391,1.87,0,2.431,1.391,2.431,3.053v5.309h-1.983v-4.942c0-1.262-.32-1.791-1.137-1.791-1.038,0-1.406,.879-1.406,1.935v4.797h-1.983v-6.876" fill="#5087ce"/><path id="ar" d="M85.156,45.021h1.983v8.235h-1.983v-8.235Zm-.031-3.502h2.047v1.951h-2.047v-1.951" fill="#5087ce"/><path id="as" d="M89.856,43.326l1.982-.608v2.303h1.646v1.454h-1.646v4.27c0,.88,.319,1.135,.895,1.135,.351,0,.608-.096,.751-.177v1.408c-.304,.144-.735,.272-1.327,.272-1.471,0-2.301-.672-2.301-2.399v-4.51h-1.311v-1.454h1.311v-1.695" fill="#5087ce"/><path id="at" d="M99.288,48.426c0-1.455-.481-2.191-1.377-2.191-1.039,0-1.47,1.104-1.47,2.191h2.846Zm1.502,4.43c-.415,.175-1.278,.528-2.461,.528-2.655,0-3.806-1.903-3.806-4.126,0-2.462,1.295-4.365,3.389-4.365,1.775,0,3.294,1.038,3.294,4.397v.384h-4.764c0,1.407,.559,2.254,2.094,2.254,1.215,0,1.79-.368,2.158-.639l.096,1.567" fill="#5087ce"/><path id="au" d="M105.952,51.928c1.167,0,1.566-1.263,1.566-2.815,0-1.599-.448-2.766-1.535-2.766-1.104,0-1.487,1.072-1.487,2.719,0,1.903,.304,2.862,1.455,2.862Zm3.549-10.665v10.586c0,.591,.017,1.103,.064,1.407h-1.854c-.032-.24-.064-.719-.064-1.279h-.049c-.319,.704-.911,1.407-2.191,1.407-2.047,0-2.894-1.951-2.894-4.238,0-2.687,1.071-4.253,2.847-4.253,1.183,0,1.839,.67,2.127,1.31h.031v-4.941h1.982" fill="#5087ce"/><path id="av" d="M115.749,42.094h2.429l3.711,8.763h.032v-8.763h1.855v11.161h-2.447l-3.695-8.698h-.031v8.698h-1.855v-11.161" fill="#5087ce"/><path id="aw" d="M130.136,49.225h-.177c-1.693,0-2.701,.353-2.701,1.552,0,.752,.495,1.263,1.263,1.263,1.184,0,1.616-.879,1.616-2.35v-.465Zm-3.903-3.725c.56-.255,1.344-.607,2.608-.607,2.557,0,3.149,1.247,3.149,3.309v3.599c0,.592,.064,1.135,.112,1.455h-1.791c-.096-.32-.112-.719-.112-1.119h-.033c-.495,.671-1.119,1.247-2.301,1.247-1.28,0-2.463-.88-2.463-2.415,0-2.239,1.823-2.799,4.332-2.799h.401v-.304c0-.815-.401-1.567-1.536-1.567-.992,0-1.871,.48-2.255,.799l-.112-1.599" fill="#5087ce"/><path id="ax" d="M136.544,42.718v2.303h1.647v1.454h-1.647v4.27c0,.88,.32,1.135,.895,1.135,.352,0,.608-.096,.752-.177v1.408c-.304,.144-.736,.272-1.327,.272-1.472,0-2.303-.672-2.303-2.399v-4.51h-1.311v-1.454h1.311v-1.695" fill="#5087ce"/><path id="ay" d="M134.561,43.326l1.983-.608" fill="#5087ce"/><path id="b`" d="M139.644,45.021h1.983v8.235h-1.983v-8.235Zm-.032-3.502h2.047v1.951h-2.047v-1.951" fill="#5087ce"/><path id="ba" d="M147.013,51.977c1.28,0,1.568-1.471,1.568-2.846s-.288-2.831-1.568-2.831-1.583,1.456-1.583,2.831,.304,2.846,1.583,2.846Zm0-7.083c1.679,0,3.615,.879,3.615,4.237,0,3.454-1.936,4.254-3.615,4.254s-3.629-.8-3.629-4.254c0-3.358,1.951-4.237,3.629-4.237" fill="#5087ce"/><path id="bb" d="M152.191,46.38c0-.512-.016-.992-.064-1.359h1.855c.016,.415,.064,.847,.064,1.263h.032c.288-.496,.848-1.391,2.191-1.391,1.871,0,2.432,1.391,2.432,3.053v5.309h-1.984v-4.942c0-1.262-.32-1.791-1.136-1.791-1.039,0-1.405,.879-1.405,1.935v4.797h-1.984v-6.876" fill="#5087ce"/><path id="bc" d="M160.263,51.337c.319,.128,1.135,.544,2.063,.544,.72,0,1.279-.177,1.279-.816,0-.32-.16-.624-.879-1.04l-.816-.48c-.831-.495-1.743-1.023-1.743-2.318,0-1.135,1.103-2.334,2.845-2.334,1.056,0,1.872,.271,2.064,.336l-.113,1.534c-.495-.192-1.023-.368-1.743-.368-.799,0-1.135,.303-1.135,.799,0,.448,.352,.687,.927,1.055l.976,.623c1.024,.656,1.536,1.119,1.536,2.079,0,1.519-1.28,2.431-3.071,2.431-1.024,0-1.872-.24-2.287-.4l.096-1.647" fill="#5087ce"/></g></g></g></g></svg>