<?xml version="1.0" encoding="UTF-8"?><svg xmlns="http://www.w3.org/2000/svg" viewBox="0 0 187.125 51.102"><g id="a"/><g id="b"><g id="c"><g><ellipse cx="45.061" cy="25.694" rx="44.299" ry="24.468" fill="#fff"/><g><g><path d="M99.484,16.802h-1.844V8.083h1.844v8.719Z" fill="#3d3935"/><path d="M102.665,16.802h-1.813v-6.539h1.729v1.154h.077c.293-.762,.996-1.239,1.967-1.239,1.362,0,2.256,.937,2.256,2.46v4.164h-1.813v-3.84c.004-.8-.435-1.277-1.162-1.277-.732,0-1.234,.494-1.239,1.337v3.78Z" fill="#3d3935"/><path d="M111.612,11.625h-1.23v3.167c0,.502,.251,.639,.613,.639,.17,0,.361-.043,.451-.06l.285,1.349c-.183,.06-.515,.153-.983,.17-1.315,.055-2.188-.579-2.18-1.86v-3.406h-.894v-1.362h.894v-1.567h1.813v1.567h1.23v1.362Z" fill="#3d3935"/><path d="M112.28,13.562c0-2.018,1.247-3.384,3.171-3.384,1.729,0,3.074,1.098,3.074,3.32v.498h-4.453v.004c0,.975,.574,1.575,1.481,1.575,.604,0,1.072-.26,1.256-.758l1.678,.111c-.256,1.213-1.346,2.001-2.964,2.001-2.014,0-3.243-1.294-3.243-3.368Zm4.538-.689c-.005-.779-.55-1.341-1.337-1.341-.805,0-1.371,.596-1.409,1.341h2.746Z" fill="#3d3935"/><path d="M119.534,10.263h1.759v1.141h.067c.238-.809,.839-1.235,1.571-1.235,.183,0,.408,.026,.57,.064v1.609c-.17-.056-.515-.098-.767-.098-.8,0-1.388,.554-1.388,1.358v3.7h-1.813v-6.539Z" fill="#3d3935"/><path d="M126.253,16.802h-1.813v-6.539h1.728v1.154h.077c.294-.762,.996-1.239,1.967-1.239,1.362,0,2.256,.937,2.256,2.46v4.164h-1.813v-3.84c.005-.8-.434-1.277-1.162-1.277-.732,0-1.234,.494-1.238,1.337v3.78Z" fill="#3d3935"/><path d="M131.294,14.976c0-1.46,1.162-1.895,2.456-2.014,1.137-.111,1.584-.166,1.584-.587v-.026c0-.536-.354-.847-.971-.847-.651,0-1.039,.319-1.162,.753l-1.678-.136c.252-1.192,1.281-1.941,2.849-1.941,1.456,0,2.775,.655,2.775,2.213v4.411h-1.72v-.907h-.051c-.319,.609-.945,1.03-1.912,1.03-1.247,0-2.171-.656-2.171-1.95Zm4.053-.511v-.694c-.217,.145-.864,.239-1.26,.294-.639,.089-1.061,.34-1.061,.852,0,.498,.4,.758,.958,.758,.796,0,1.362-.524,1.362-1.209Z" fill="#3d3935"/><path d="M141.862,11.625h-1.23v3.167c0,.502,.251,.639,.613,.639,.17,0,.361-.043,.451-.06l.285,1.349c-.183,.06-.515,.153-.983,.17-1.315,.055-2.188-.579-2.18-1.86v-3.406h-.894v-1.362h.894v-1.567h1.813v1.567h1.23v1.362Z" fill="#3d3935"/><path d="M142.977,8.5c0-.502,.443-.915,.979-.915,.54,0,.983,.413,.983,.915,0,.507-.443,.92-.983,.92-.536,0-.979-.413-.979-.92Zm.068,1.763h1.813v6.539h-1.813v-6.539Z" fill="#3d3935"/><path d="M145.805,13.558c0-2.026,1.234-3.38,3.219-3.38s3.219,1.354,3.219,3.38c0,2.014-1.235,3.372-3.219,3.372s-3.219-1.358-3.219-3.372Zm4.594-.013c0-1.141-.469-1.984-1.366-1.984-.916,0-1.384,.843-1.384,1.984s.468,1.979,1.384,1.979c.897,0,1.366-.838,1.366-1.979Z" fill="#3d3935"/><path d="M155.006,16.802h-1.813v-6.539h1.729v1.154h.076c.294-.762,.996-1.239,1.967-1.239,1.362,0,2.257,.937,2.257,2.46v4.164h-1.813v-3.84c.004-.8-.435-1.277-1.162-1.277-.732,0-1.235,.494-1.239,1.337v3.78Z" fill="#3d3935"/><path d="M160.108,14.976c0-1.46,1.162-1.895,2.456-2.014,1.137-.111,1.584-.166,1.584-.587v-.026c0-.536-.354-.847-.971-.847-.651,0-1.039,.319-1.162,.753l-1.678-.136c.251-1.192,1.281-1.941,2.848-1.941,1.456,0,2.776,.655,2.776,2.213v4.411h-1.72v-.907h-.052c-.319,.609-.944,1.03-1.911,1.03-1.247,0-2.171-.656-2.171-1.95Zm4.053-.511v-.694c-.218,.145-.864,.239-1.261,.294-.638,.089-1.06,.34-1.06,.852,0,.498,.4,.758,.958,.758,.796,0,1.362-.524,1.362-1.209Z" fill="#3d3935"/><path d="M169.071,16.802h-1.813V8.083h1.813v8.719Z" fill="#3d3935"/><path d="M97.64,22.483h3.439c1.979,0,3.125,1.222,3.125,2.955s-1.166,2.938-3.172,2.938h-1.549v2.827h-1.844v-8.719Zm3.095,4.415c1.056,0,1.571-.596,1.571-1.46,0-.869-.516-1.447-1.579-1.447h-1.243v2.908h1.251Z" fill="#3d3935"/><path d="M106.892,31.202h-1.813v-8.719h1.813v8.719Z" fill="#3d3935"/><path d="M107.856,29.376c0-1.46,1.162-1.895,2.456-2.014,1.137-.111,1.584-.166,1.584-.587v-.026c0-.536-.354-.847-.971-.847-.651,0-1.039,.319-1.162,.754l-1.678-.136c.252-1.192,1.282-1.941,2.849-1.941,1.456,0,2.775,.656,2.775,2.214v4.41h-1.72v-.907h-.051c-.319,.609-.945,1.03-1.912,1.03-1.247,0-2.171-.656-2.171-1.95Zm4.053-.511v-.694c-.217,.145-.864,.239-1.26,.294-.639,.089-1.061,.341-1.061,.852,0,.498,.4,.758,.958,.758,.796,0,1.362-.524,1.362-1.209Z" fill="#3d3935"/><path d="M116.759,31.202h-1.813v-6.539h1.728v1.154h.077c.294-.762,.996-1.239,1.967-1.239,1.362,0,2.256,.937,2.256,2.46v4.164h-1.813v-3.84c.005-.8-.434-1.277-1.162-1.277-.732,0-1.234,.494-1.238,1.337v3.78Z" fill="#3d3935"/><path d="M125.704,26.025h-1.23v3.167c0,.502,.252,.639,.613,.639,.17,0,.362-.042,.451-.06l.285,1.35c-.183,.06-.515,.153-.983,.17-1.315,.056-2.188-.579-2.18-1.86v-3.406h-.894v-1.362h.894v-1.566h1.813v1.566h1.23v1.362Z" fill="#3d3935"/><path d="M129.645,22.483h3.439c1.979,0,3.125,1.222,3.125,2.955s-1.166,2.938-3.172,2.938h-1.55v2.827h-1.843v-8.719Zm3.095,4.415c1.056,0,1.571-.596,1.571-1.46,0-.869-.516-1.447-1.58-1.447h-1.243v2.908h1.252Z" fill="#3d3935"/><path d="M137.083,24.663h1.758v1.141h.068c.238-.809,.839-1.235,1.571-1.235,.183,0,.408,.026,.57,.064v1.609c-.171-.055-.516-.098-.767-.098-.801,0-1.388,.554-1.388,1.358v3.699h-1.813v-6.539Z" fill="#3d3935"/><path d="M141.292,27.958c0-2.027,1.234-3.38,3.218-3.38s3.219,1.354,3.219,3.38c0,2.013-1.234,3.372-3.219,3.372s-3.218-1.358-3.218-3.372Zm4.593-.013c0-1.141-.468-1.984-1.366-1.984-.915,0-1.384,.843-1.384,1.984s.469,1.98,1.384,1.98c.898,0,1.366-.839,1.366-1.98Z" fill="#3d3935"/><path d="M152.037,26.025h-1.23v3.167c0,.502,.251,.639,.613,.639,.17,0,.361-.042,.451-.06l.285,1.35c-.183,.06-.516,.153-.983,.17-1.315,.056-2.188-.579-2.18-1.86v-3.406h-.895v-1.362h.895v-1.566h1.813v1.566h1.23v1.362Z" fill="#3d3935"/><path d="M152.645,27.962c0-2.018,1.247-3.384,3.172-3.384,1.729,0,3.073,1.098,3.073,3.32v.499h-4.453v.004c0,.975,.575,1.575,1.481,1.575,.604,0,1.073-.26,1.256-.758l1.678,.111c-.256,1.213-1.346,2.001-2.963,2.001-2.014,0-3.244-1.294-3.244-3.368Zm4.538-.689c-.004-.779-.549-1.341-1.337-1.341-.805,0-1.37,.596-1.409,1.341h2.746Z" fill="#3d3935"/><path d="M159.576,27.958c0-2.005,1.226-3.38,3.21-3.38,1.707,0,2.853,.992,2.929,2.503h-1.711c-.099-.651-.524-1.09-1.188-1.09-.843,0-1.396,.707-1.396,1.941,0,1.252,.549,1.963,1.396,1.963,.622,0,1.082-.392,1.188-1.09h1.711c-.085,1.502-1.179,2.524-2.92,2.524-2.014,0-3.219-1.384-3.219-3.372Z" fill="#3d3935"/><path d="M170.126,26.025h-1.23v3.167c0,.502,.251,.639,.613,.639,.17,0,.362-.042,.451-.06l.285,1.35c-.183,.06-.515,.153-.983,.17-1.315,.056-2.188-.579-2.18-1.86v-3.406h-.894v-1.362h.894v-1.566h1.813v1.566h1.23v1.362Z" fill="#3d3935"/><path d="M171.182,22.901c0-.502,.442-.916,.979-.916,.54,0,.983,.413,.983,.916,0,.506-.443,.919-.983,.919-.537,0-.979-.413-.979-.919Zm.068,1.762h1.813v6.539h-1.813v-6.539Z" fill="#3d3935"/><path d="M173.89,27.958c0-2.027,1.234-3.38,3.219-3.38s3.218,1.354,3.218,3.38c0,2.013-1.234,3.372-3.218,3.372s-3.219-1.358-3.219-3.372Zm4.594-.013c0-1.141-.469-1.984-1.366-1.984-.916,0-1.384,.843-1.384,1.984s.468,1.98,1.384,1.98c.897,0,1.366-.839,1.366-1.98Z" fill="#3d3935"/><path d="M182.911,31.202h-1.814v-6.539h1.729v1.154h.077c.294-.762,.996-1.239,1.967-1.239,1.362,0,2.256,.937,2.256,2.46v4.164h-1.813v-3.84c.005-.8-.434-1.277-1.162-1.277-.732,0-1.234,.494-1.238,1.337v3.78Z" fill="#3d3935"/><path d="M103.468,39.936c-.141-.958-.868-1.541-1.878-1.541-1.349,0-2.234,1.034-2.234,2.848,0,1.865,.898,2.848,2.222,2.848,.983,0,1.716-.536,1.891-1.469l1.864,.009c-.2,1.605-1.549,3.091-3.784,3.091-2.333,0-4.062-1.635-4.062-4.479s1.758-4.479,4.062-4.479c2.018,0,3.542,1.158,3.784,3.172h-1.864Z" fill="#3d3935"/><path d="M106.007,42.358c0-2.026,1.234-3.38,3.219-3.38s3.218,1.354,3.218,3.38c0,2.014-1.234,3.372-3.218,3.372s-3.219-1.358-3.219-3.372Zm4.594-.013c0-1.141-.469-1.984-1.367-1.984-.915,0-1.383,.843-1.383,1.984s.468,1.979,1.383,1.979c.898,0,1.367-.839,1.367-1.979Z" fill="#3d3935"/><path d="M115.028,45.602h-1.813v-6.539h1.729v1.154h.077c.294-.762,.996-1.239,1.967-1.239,1.362,0,2.256,.937,2.256,2.46v4.164h-1.813v-3.84c.005-.8-.435-1.277-1.162-1.277-.732,0-1.234,.494-1.239,1.337v3.78Z" fill="#3d3935"/><path d="M123.946,45.602h-2.043l-2.286-6.539h1.916l1.357,4.679h.068l1.354-4.679h1.92l-2.286,6.539Z" fill="#3d3935"/><path d="M126.267,42.362c0-2.018,1.247-3.384,3.172-3.384,1.729,0,3.073,1.098,3.073,3.321v.498h-4.453v.004c0,.975,.575,1.575,1.481,1.575,.604,0,1.073-.259,1.256-.758l1.678,.111c-.256,1.213-1.346,2.001-2.963,2.001-2.014,0-3.244-1.294-3.244-3.368Zm4.538-.689c-.004-.779-.549-1.341-1.337-1.341-.805,0-1.371,.596-1.409,1.341h2.746Z" fill="#3d3935"/><path d="M135.276,45.602h-1.813v-6.539h1.729v1.154h.076c.294-.762,.997-1.239,1.967-1.239,1.362,0,2.257,.937,2.257,2.46v4.164h-1.813v-3.84c.004-.8-.435-1.277-1.162-1.277-.732,0-1.234,.494-1.239,1.337v3.78Z" fill="#3d3935"/><path d="M144.161,40.425h-1.229v3.167c0,.502,.251,.639,.612,.639,.171,0,.362-.042,.451-.06l.285,1.35c-.183,.06-.515,.153-.983,.17-1.315,.056-2.188-.579-2.18-1.86v-3.406h-.894v-1.362h.894v-1.566h1.814v1.566h1.229v1.362Z" fill="#3d3935"/><path d="M145.217,37.301c0-.502,.443-.916,.979-.916,.54,0,.983,.413,.983,.916,0,.506-.443,.919-.983,.919-.536,0-.979-.413-.979-.919Zm.068,1.762h1.813v6.539h-1.813v-6.539Z" fill="#3d3935"/><path d="M147.925,42.358c0-2.026,1.235-3.38,3.219-3.38s3.219,1.354,3.219,3.38c0,2.014-1.235,3.372-3.219,3.372s-3.219-1.358-3.219-3.372Zm4.594-.013c0-1.141-.468-1.984-1.366-1.984-.916,0-1.384,.843-1.384,1.984s.468,1.979,1.384,1.979c.898,0,1.366-.839,1.366-1.979Z" fill="#3d3935"/><path d="M156.947,45.602h-1.813v-6.539h1.729v1.154h.076c.294-.762,.996-1.239,1.967-1.239,1.362,0,2.257,.937,2.257,2.46v4.164h-1.814v-3.84c.005-.8-.434-1.277-1.162-1.277s-1.234,.494-1.238,1.337v3.78Z" fill="#3d3935"/></g><g><path d="M45.277,0C20.311,0,0,11.462,0,25.551s20.311,25.551,45.277,25.551,45.277-11.462,45.277-25.551S70.243,0,45.277,0Zm42.822,24.812h-10.217c-.156-3.882-1.539-7.543-3.87-10.772h8.414c3.409,3.192,5.445,6.86,5.673,10.772Zm-21.454,2.126h1.686l-1.779,8.356h-1.686l1.779-8.356Zm-3.868-12.899h9.431c2.534,3.189,4.051,6.86,4.221,10.772h-11.292c-.102-3.886-.942-7.547-2.359-10.772Zm7.041,12.899h2.949c1.708,0,2.024,1.252,1.755,2.505-.363,1.732-1.592,2.516-3.183,2.516h-.901l-.714,3.335h-1.686l1.779-8.356Zm5.898,0h2.949c1.709,0,2.024,1.252,1.756,2.505-.363,1.732-1.592,2.516-3.184,2.516h-.901l-.714,3.335h-1.686l1.779-8.356Zm5.003-14.375h-7.863c-3.113-3.674-7.5-6.689-12.682-8.698,8.405,1.687,15.572,4.758,20.544,8.698Zm-9.781,0h-8.871c-2.038-3.949-4.97-7.133-8.446-9.118,7.102,1.466,13.212,4.746,17.318,9.118ZM14.127,24.812c.169-3.916,1.675-7.586,4.195-10.772h9.456c-1.417,3.226-2.257,6.886-2.359,10.772H14.127Zm13.472,11.943h-9.517c-2.376-3.115-3.791-6.676-3.955-10.467h11.289c.084,3.762,.861,7.312,2.183,10.467ZM19.589,12.563c4.104-4.387,10.223-7.672,17.366-9.131-3.486,1.984-6.426,5.173-8.469,9.131h-8.897ZM30.267,3.889c-5.156,2.007-9.508,5.013-12.597,8.674h-7.835c4.95-3.922,12.076-6.982,20.432-8.674ZM8.129,14.04h8.385c-2.317,3.227-3.685,6.887-3.841,10.772H2.456c.229-3.912,2.264-7.58,5.673-10.772ZM2.456,26.289H12.673c.151,3.764,1.443,7.314,3.631,10.467H7.803c-3.215-3.12-5.126-6.679-5.347-10.467Zm7.035,11.967h7.937c3.101,3.79,7.547,6.896,12.835,8.955-8.552-1.732-15.811-4.899-20.772-8.955Zm9.836,0h8.949c1.984,4.017,4.885,7.278,8.341,9.343-7.15-1.525-13.251-4.885-17.29-9.343Zm25.95,10.251c-.425,0-.847-.011-1.269-.024-9.542-.817-17.106-10.759-17.106-22.871,0-12.646,8.243-22.933,18.375-22.933,6.735,0,12.632,4.549,15.832,11.311,0,0,0,.049,.023,.049,1.599,3.4,2.521,7.353,2.521,11.572,0,4.01-.831,7.781-2.287,11.064-5.4-.59-7.633-.846-11.251-.248-1.269,.211-3.015,1.325-4.285,2.001-.667,.355-1.202,.59-1.467,.508,.159-.147,.263-.385,.392-.423,.189-.056,.221-.012,.365-.023s.188-.208,.424-.247c.235-.039,.169,.034,.447-.071,.237-.089-.215-.434-.259-.576-.063-.205-.185-.428-.2-.835-.028-.741,.012-1.837-.082-2.765-.055-.543-.129-.962-.158-1.507-.018-.345,.003-.815-.01-1.16-.017-.465-.042-.93-.072-1.395-.015-.238-.048-.479-.051-.717-.002-.152-.155-1.371,.054-1.385,.089-.006,.408,.496,.488,.571,.238,.222,.498,.422,.773,.597,2.05,1.302,5,1.362,7.041,.026,.111-.072,.219-.149,.323-.23,.691-.532,1.247-1.237,1.606-2.032,.392-.868,.513-1.896,.679-2.83,.175-.988,.491-1.943,.764-2.914,.233-.831,.408-1.326,.645-1.648,.253-.344,.565-.506,.318-.706-.11-.089-.37-.142-.509-.164-.778-.123-1.59-.177-2.409-.156-2.506,.065-5.682,.887-7.437,2.736-.322,.339-.677,.627-.964,1.003-.288,.378-.526,.792-.711,1.23-.414,.984-.457,1.975-.418,3.022,.008,.211,.068,.89-.251,.89-.097-.033-.102-.443-.111-.519-.035-.317-.123-1.168-.155-1.486-.094-.938-.176-1.282-.297-2.174-.124-.912-.238-1.787-.192-2.712,.037-.759,.236-1.508,.574-2.188,.15-.301,.325-.636,.556-.884,.207-.221,.397-.18,.67-.092,1.906,.61,3.825,.479,5.273-.993,1.177-1.196,1.871-2.878,2.119-4.521,.155-1.028,.166-2.1,.139-3.137-.004-.149-.125-2.222-.451-1.918-.466,.433-1.154,.95-1.667,1.167-1.121,.474-2.258,.923-3.434,1.243-1.054,.287-1.982,.704-2.701,1.564-.776,.929-1.122,2.081-.951,3.272,.118,.821,.439,1.612,.466,2.446,.022,.689-.201,1.239-.473,1.84-.209,.462-.372,.913-.475,1.417-.052,.254-.082,.512-.102,.771-.01,.134-.018,.268-.024,.403-.005,.096,.03,.258-.06,.324-.086,.063-.245-.531-.267-.701-.06-.453-.005-.911,.082-1.357,.081-.415,.221-.827,.24-1.25,.024-.524-.035-1.044-.179-1.55-.292-1.026-.888-1.957-1.633-2.714-.03-.03-.06-.06-.09-.09-1.068-1.048-2.319-1.896-3.636-2.599-.817-.436-1.697-.903-2.637-1.065-.316-.054-1.178-.204-1.401,.032-.101,.108-.081,.182-.019,.258,.113,.139,.371,.331,.492,1.131,.212,1.409-.06,2.835,.106,4.583,.14,1.476,.304,3.023,1.138,4.248,.709,1.042,1.861,1.746,3.092,2.014s2.533,.117,3.716-.318c.221-.081,.458-.174,.685-.112,.429,.115,.52,1.258,.563,1.606s.316,2.23,.376,3.646c.03,.71,.13,2.31,.146,3.021,.008,.345,.012,.619,.003,.892-.009,.273,.018,.878-.078,.885-.147,.01-.185-.623-.196-.716-.051-.437-.146-.869-.249-1.296-.084-.348-.182-.694-.301-1.032-.398-1.134-.893-2.382-1.708-3.28-.782-.862-1.83-1.446-2.908-1.856-1.381-.525-2.835-.851-4.305-.992-.514-.049-1.031-.076-1.547-.08-.504-.004-1.014-.024-1.517,.021-.181,.016-.574,.01-.641,.234-.071,.239,.206,.442,.393,.726,.188,.284,.376,.587,.682,1.431,.306,.845,.558,1.526,.804,2.636,.386,1.743,.925,3.562,2.02,5.02,1.063,1.416,2.664,2.311,4.389,2.65,1.831,.36,3.816-.106,4.485-2.039,.059-.172,.104-.348,.135-.527,.02-.113,.042-.515,.258-.373,.045,.029,.073,.078,.097,.126,.158,.317,.203,.697,.25,1.045,.051,.379,.084,.761,.107,1.143,.027,.453,.042,.908,.036,1.362-.01,.766-.012,1.279-.167,1.938-.135,.574-.496,.903-.769,1.12-.958-.087-2.905-.055-3.402,.116-.6,.206-.699,.631-.747,.814-.35,1.314,.895,1.609,.721,1.609-.915,0-2.353-1.043-3.03-3.063-.494-1.475-1.325-2.198-2.035-2.132-.619,.059-1.041,.267-.205,2.531,1.328,3.598,2.335,4.874,4.039,5.773,3.534,1.865,3.219,2.398,5.05,2.576,2.479,.239,4.511-2.037,6.418-3.271,.952-.616,1.957-1.15,3.001-1.593,.763-.324,1.546-.601,2.344-.826,.893-.252,1.624-.398,2.537-.291,.023,.003,.096,.016,.186,.033-3.066,4.147-7.34,6.879-12.117,7.326-.461,.015-.921,.035-1.385,.035Zm.803-21.209c2.363-.846,3.492-3.5,5.056-5.351,1.153-1.365,3.114-2.432,4.76-2.835,.347-.085,.476,.067,.107,.186-1.426,.458-2.867,1.161-3.877,2.042-1.086,.948-1.767,2.163-2.69,3.388-.906,1.203-1.688,2.248-3.137,2.767-.248,.089-.602-.06-.218-.197Zm-.565-10.97c.738-1.944,1.35-3.214,2.644-4.415,1.544-1.433,3.794-2.003,4.625-4.116,.028-.071,.301-.094,.285-.054-.607,1.541-1.578,2.133-2.911,2.981-.747,.476-1.518,1.071-2.176,1.729s-1.599,2.114-2.182,3.82c-.025,.073-.3,.093-.285,.054Zm-2.781,4.648c-1.73-.746-3.212-1.802-3.622-3.729-.544-2.56-1.038-5.3-3.625-6.591-.133-.066,.127-.205,.227-.155,1.771,.884,2.571,2.397,3.113,4.21,.316,1.056,.38,2.283,.8,3.293,.596,1.431,1.98,2.233,3.333,2.817,.134,.058-.126,.199-.227,.155Zm.596,10.769c-2.217-.551-3.319-1.391-4.664-3.225-.818-1.115-1.725-2.365-2.636-3.242-1.018-.979-2.071-1.546-3.606-2.033-.193-.061,.086-.234,.204-.196,1.928,.612,3.34,1.522,4.626,3.089,.788,.96,1.533,2.172,2.354,3.102,1.128,1.278,2.258,1.894,3.927,2.309,.195,.049-.085,.226-.204,.196Zm18.661,7.062l.978-1.436,9.002,.01c-4.107,5.012-10.576,8.621-18.025,10.212,3.292-1.97,6.074-5.027,8.045-8.786Zm-1.683,8.401c5.602-2.174,10.348-5.546,13.516-9.816l-.011-.008,8.26,.009c-4.955,4.468-12.621,7.961-21.764,9.815Zm25.965-17.448h-1.686c.258-1.217,.117-1.744-.644-1.744-.854,0-1.229,.854-1.732,3.219-.538,2.528-.281,2.984,.444,2.984,.609,0,1.112-.316,1.498-2.118h1.686c-.386,1.802-1.158,3.359-3.37,3.359-2.528,0-2.458-1.803-1.92-4.342,.539-2.54,1.241-4.342,3.769-4.342,2.411,0,2.212,1.767,1.955,2.984Z" fill="#009849" fill-rule="evenodd"/><path d="M72.837,29.467c.175-.819-.059-1.288-.901-1.288h-.702l-.539,2.54h.749c.667,0,1.206-.398,1.393-1.252Z" fill="#009849" fill-rule="evenodd"/><path d="M78.735,29.467c.176-.819-.059-1.288-.901-1.288h-.702l-.539,2.54h.749c.667,0,1.206-.398,1.393-1.252Z" fill="#009849" fill-rule="evenodd"/></g></g></g></g></g></svg>